<svg xmlns="http://www.w3.org/2000/svg" xmlns:xlink="http://www.w3.org/1999/xlink" width="500" zoomAndPan="magnify" viewBox="0 0 375 204.749996" height="273" preserveAspectRatio="xMidYMid meet" version="1.0"><defs><g/><clipPath id="df456febc0"><path d="M 85.246094 102 L 104 102 L 104 107 L 85.246094 107 Z M 85.246094 102 " clip-rule="nonzero"/></clipPath><clipPath id="baad23a433"><path d="M 185 2.1875 L 190 2.1875 L 190 21 L 185 21 Z M 185 2.1875 " clip-rule="nonzero"/></clipPath></defs><path fill="#e9c261" d="M 276.128906 85.03125 C 275.9375 85.03125 275.769531 84.898438 275.730469 84.707031 C 275.6875 84.484375 275.828125 84.269531 276.050781 84.226562 L 287.308594 81.984375 C 287.535156 81.941406 287.746094 82.085938 287.789062 82.304688 C 287.832031 82.527344 287.691406 82.738281 287.46875 82.785156 L 276.210938 85.023438 C 276.183594 85.03125 276.15625 85.03125 276.128906 85.03125 " fill-opacity="1" fill-rule="nonzero"/><path fill="#e9c261" d="M 270.996094 68.074219 C 270.835938 68.074219 270.683594 67.980469 270.621094 67.824219 C 270.535156 67.613281 270.632812 67.375 270.839844 67.289062 L 281.4375 62.902344 C 281.644531 62.816406 281.882812 62.914062 281.96875 63.121094 C 282.054688 63.332031 281.957031 63.570312 281.75 63.65625 L 271.152344 68.042969 C 271.101562 68.0625 271.050781 68.074219 270.996094 68.074219 " fill-opacity="1" fill-rule="nonzero"/><path fill="#e9c261" d="M 270.507812 94.484375 C 270.300781 94.484375 270.125 94.328125 270.101562 94.117188 C 270.082031 93.894531 270.246094 93.691406 270.46875 93.671875 L 277.382812 92.992188 C 277.609375 92.964844 277.804688 93.132812 277.828125 93.355469 C 277.847656 93.582031 277.6875 93.777344 277.460938 93.800781 L 270.546875 94.484375 C 270.535156 94.484375 270.519531 94.484375 270.507812 94.484375 " fill-opacity="1" fill-rule="nonzero"/><path fill="#e9c261" d="M 269.320312 86.386719 C 269.128906 86.386719 268.957031 86.253906 268.917969 86.058594 C 268.875 85.835938 269.019531 85.621094 269.238281 85.578125 L 276.050781 84.226562 C 276.269531 84.183594 276.484375 84.324219 276.527344 84.546875 C 276.574219 84.765625 276.429688 84.980469 276.210938 85.023438 L 269.398438 86.378906 C 269.371094 86.382812 269.34375 86.386719 269.320312 86.386719 " fill-opacity="1" fill-rule="nonzero"/><path fill="#e9c261" d="M 267.335938 78.445312 C 267.160156 78.445312 267 78.332031 266.945312 78.15625 C 266.878906 77.941406 267 77.714844 267.214844 77.648438 L 273.863281 75.628906 C 274.078125 75.5625 274.308594 75.683594 274.371094 75.898438 C 274.4375 76.117188 274.316406 76.339844 274.101562 76.40625 L 267.453125 78.425781 C 267.414062 78.441406 267.375 78.445312 267.335938 78.445312 " fill-opacity="1" fill-rule="nonzero"/><path fill="#e9c261" d="M 262.632812 52.457031 C 262.5 52.457031 262.371094 52.394531 262.292969 52.277344 C 262.167969 52.089844 262.21875 51.835938 262.40625 51.710938 L 271.957031 45.332031 C 272.144531 45.207031 272.394531 45.257812 272.519531 45.445312 C 272.644531 45.632812 272.597656 45.886719 272.410156 46.011719 L 262.859375 52.390625 C 262.789062 52.4375 262.710938 52.457031 262.632812 52.457031 " fill-opacity="1" fill-rule="nonzero"/><path fill="#e9c261" d="M 264.578125 70.734375 C 264.417969 70.734375 264.265625 70.640625 264.199219 70.480469 C 264.113281 70.273438 264.214844 70.035156 264.421875 69.949219 L 270.839844 67.289062 C 271.046875 67.207031 271.285156 67.300781 271.371094 67.511719 C 271.457031 67.71875 271.359375 67.957031 271.152344 68.042969 L 264.730469 70.703125 C 264.679688 70.722656 264.628906 70.734375 264.578125 70.734375 " fill-opacity="1" fill-rule="nonzero"/><path fill="#e9c261" d="M 261.074219 63.335938 C 260.925781 63.335938 260.789062 63.257812 260.714844 63.121094 C 260.609375 62.921875 260.683594 62.675781 260.882812 62.570312 L 267.007812 59.292969 C 267.207031 59.1875 267.453125 59.261719 267.558594 59.460938 C 267.664062 59.660156 267.589844 59.90625 267.390625 60.011719 L 261.265625 63.289062 C 261.203125 63.320312 261.140625 63.335938 261.074219 63.335938 " fill-opacity="1" fill-rule="nonzero"/><path fill="#e9c261" d="M 256.855469 56.320312 C 256.726562 56.320312 256.597656 56.257812 256.519531 56.140625 C 256.390625 55.953125 256.441406 55.699219 256.628906 55.574219 L 262.40625 51.710938 C 262.59375 51.589844 262.847656 51.636719 262.972656 51.824219 C 263.097656 52.011719 263.046875 52.265625 262.859375 52.390625 L 257.082031 56.253906 C 257.015625 56.296875 256.933594 56.320312 256.855469 56.320312 " fill-opacity="1" fill-rule="nonzero"/><path fill="#e9c261" d="M 251.390625 38.769531 C 251.285156 38.769531 251.179688 38.730469 251.101562 38.652344 C 250.941406 38.492188 250.941406 38.234375 251.101562 38.074219 L 259.230469 29.949219 C 259.386719 29.789062 259.644531 29.789062 259.804688 29.949219 C 259.964844 30.105469 259.964844 30.363281 259.804688 30.523438 L 251.675781 38.652344 C 251.597656 38.730469 251.492188 38.769531 251.390625 38.769531 " fill-opacity="1" fill-rule="nonzero"/><path fill="#e9c261" d="M 251.972656 49.746094 C 251.855469 49.746094 251.738281 49.695312 251.65625 49.59375 C 251.515625 49.421875 251.539062 49.164062 251.714844 49.023438 L 257.085938 44.613281 C 257.261719 44.472656 257.515625 44.5 257.660156 44.671875 C 257.804688 44.84375 257.777344 45.101562 257.605469 45.246094 L 252.230469 49.652344 C 252.15625 49.714844 252.0625 49.746094 251.972656 49.746094 " fill-opacity="1" fill-rule="nonzero"/><path fill="#e9c261" d="M 246.476562 43.683594 C 246.375 43.683594 246.269531 43.644531 246.1875 43.5625 C 246.03125 43.40625 246.03125 43.148438 246.1875 42.988281 L 251.101562 38.074219 C 251.261719 37.914062 251.519531 37.914062 251.675781 38.074219 C 251.835938 38.234375 251.835938 38.492188 251.675781 38.652344 L 246.765625 43.5625 C 246.683594 43.644531 246.578125 43.683594 246.476562 43.683594 " fill-opacity="1" fill-rule="nonzero"/><path fill="#e9c261" d="M 240.414062 38.1875 C 240.324219 38.1875 240.230469 38.15625 240.15625 38.09375 C 239.980469 37.953125 239.957031 37.695312 240.101562 37.523438 L 244.507812 32.148438 C 244.652344 31.976562 244.90625 31.949219 245.082031 32.09375 C 245.253906 32.234375 245.28125 32.492188 245.136719 32.664062 L 240.730469 38.039062 C 240.648438 38.136719 240.53125 38.1875 240.414062 38.1875 " fill-opacity="1" fill-rule="nonzero"/><path fill="#e9c261" d="M 237.703125 27.527344 C 237.625 27.527344 237.546875 27.503906 237.476562 27.457031 C 237.289062 27.332031 237.238281 27.078125 237.363281 26.894531 L 243.742188 17.34375 C 243.867188 17.15625 244.121094 17.105469 244.308594 17.230469 C 244.492188 17.355469 244.542969 17.609375 244.421875 17.796875 L 238.039062 27.34375 C 237.960938 27.464844 237.835938 27.527344 237.703125 27.527344 " fill-opacity="1" fill-rule="nonzero"/><path fill="#e9c261" d="M 233.839844 33.304688 C 233.761719 33.304688 233.683594 33.28125 233.613281 33.234375 C 233.425781 33.109375 233.375 32.855469 233.5 32.671875 L 237.363281 26.894531 C 237.488281 26.707031 237.742188 26.65625 237.929688 26.78125 C 238.117188 26.90625 238.164062 27.15625 238.039062 27.34375 L 234.179688 33.121094 C 234.101562 33.238281 233.96875 33.304688 233.839844 33.304688 " fill-opacity="1" fill-rule="nonzero"/><path fill="#e9c261" d="M 226.824219 29.085938 C 226.761719 29.085938 226.695312 29.070312 226.632812 29.039062 C 226.433594 28.933594 226.359375 28.683594 226.464844 28.488281 L 229.742188 22.359375 C 229.847656 22.164062 230.09375 22.085938 230.292969 22.191406 C 230.488281 22.300781 230.566406 22.546875 230.460938 22.746094 L 227.183594 28.871094 C 227.109375 29.011719 226.96875 29.085938 226.824219 29.085938 " fill-opacity="1" fill-rule="nonzero"/><path fill="#e9c261" d="M 222.085938 19.164062 C 222.035156 19.164062 221.984375 19.152344 221.933594 19.132812 C 221.722656 19.046875 221.625 18.808594 221.710938 18.597656 L 226.097656 8.003906 C 226.183594 7.796875 226.425781 7.699219 226.632812 7.785156 C 226.835938 7.871094 226.9375 8.109375 226.851562 8.316406 L 222.464844 18.910156 C 222.398438 19.070312 222.246094 19.164062 222.085938 19.164062 " fill-opacity="1" fill-rule="nonzero"/><path fill="#e9c261" d="M 219.425781 25.582031 C 219.375 25.582031 219.320312 25.574219 219.269531 25.550781 C 219.0625 25.464844 218.964844 25.226562 219.050781 25.019531 L 221.710938 18.597656 C 221.796875 18.390625 222.035156 18.292969 222.242188 18.378906 C 222.449219 18.464844 222.550781 18.703125 222.464844 18.910156 L 219.800781 25.332031 C 219.738281 25.488281 219.585938 25.582031 219.425781 25.582031 " fill-opacity="1" fill-rule="nonzero"/><path fill="#e9c261" d="M 211.714844 22.824219 C 211.675781 22.824219 211.636719 22.820312 211.597656 22.808594 C 211.382812 22.742188 211.261719 22.515625 211.324219 22.300781 L 213.34375 15.652344 C 213.410156 15.4375 213.640625 15.3125 213.855469 15.378906 C 214.070312 15.445312 214.191406 15.671875 214.125 15.886719 L 212.105469 22.535156 C 212.050781 22.714844 211.890625 22.824219 211.714844 22.824219 " fill-opacity="1" fill-rule="nonzero"/><path fill="#e9c261" d="M 205.128906 14.03125 C 205.101562 14.03125 205.074219 14.027344 205.046875 14.023438 C 204.828125 13.976562 204.683594 13.761719 204.726562 13.542969 L 206.96875 2.285156 C 207.011719 2.0625 207.226562 1.917969 207.449219 1.964844 C 207.667969 2.007812 207.8125 2.222656 207.765625 2.441406 L 205.527344 13.703125 C 205.488281 13.894531 205.316406 14.03125 205.128906 14.03125 " fill-opacity="1" fill-rule="nonzero"/><path fill="#e9c261" d="M 203.773438 20.839844 C 203.75 20.839844 203.722656 20.839844 203.695312 20.832031 C 203.476562 20.789062 203.332031 20.574219 203.375 20.355469 L 204.726562 13.542969 C 204.769531 13.324219 204.988281 13.179688 205.207031 13.222656 C 205.429688 13.265625 205.570312 13.480469 205.527344 13.703125 L 204.175781 20.515625 C 204.136719 20.707031 203.964844 20.839844 203.773438 20.839844 " fill-opacity="1" fill-rule="nonzero"/><path fill="#e9c261" d="M 195.675781 19.652344 C 195.664062 19.652344 195.652344 19.652344 195.636719 19.648438 C 195.414062 19.628906 195.25 19.429688 195.269531 19.203125 L 195.953125 12.292969 C 195.972656 12.066406 196.167969 11.902344 196.398438 11.925781 C 196.621094 11.949219 196.785156 12.148438 196.761719 12.371094 L 196.082031 19.285156 C 196.0625 19.496094 195.882812 19.652344 195.675781 19.652344 " fill-opacity="1" fill-rule="nonzero"/><path fill="#e9c261" d="M 187.5 19.253906 C 187.277344 19.253906 187.09375 19.070312 187.09375 18.847656 L 187.09375 11.898438 C 187.09375 11.675781 187.277344 11.492188 187.5 11.492188 C 187.722656 11.492188 187.90625 11.675781 187.90625 11.898438 L 187.90625 18.847656 C 187.90625 19.070312 187.722656 19.253906 187.5 19.253906 " fill-opacity="1" fill-rule="nonzero"/><path fill="#e9c261" d="M 187.5 12.308594 C 187.277344 12.308594 187.09375 12.125 187.09375 11.898438 L 187.09375 0.40625 C 187.09375 0.183594 187.277344 0 187.5 0 C 187.722656 0 187.90625 0.183594 187.90625 0.40625 L 187.90625 11.898438 C 187.90625 12.125 187.722656 12.308594 187.5 12.308594 " fill-opacity="1" fill-rule="nonzero"/><path fill="#e9c261" d="M 179.324219 19.652344 C 179.117188 19.652344 178.9375 19.496094 178.917969 19.285156 L 178.238281 12.371094 C 178.214844 12.148438 178.378906 11.949219 178.601562 11.925781 C 178.832031 11.902344 179.027344 12.066406 179.046875 12.292969 L 179.730469 19.203125 C 179.75 19.429688 179.585938 19.628906 179.363281 19.648438 C 179.351562 19.652344 179.335938 19.652344 179.324219 19.652344 " fill-opacity="1" fill-rule="nonzero"/><path fill="#e9c261" d="M 171.226562 20.839844 C 171.035156 20.839844 170.863281 20.707031 170.824219 20.515625 L 169.472656 13.703125 C 169.429688 13.480469 169.570312 13.265625 169.792969 13.222656 C 170.015625 13.179688 170.226562 13.324219 170.273438 13.542969 L 171.625 20.355469 C 171.667969 20.574219 171.523438 20.789062 171.304688 20.832031 C 171.277344 20.839844 171.25 20.839844 171.226562 20.839844 " fill-opacity="1" fill-rule="nonzero"/><path fill="#e9c261" d="M 169.871094 14.03125 C 169.683594 14.03125 169.511719 13.894531 169.472656 13.703125 L 167.234375 2.441406 C 167.1875 2.222656 167.332031 2.007812 167.550781 1.964844 C 167.773438 1.921875 167.988281 2.0625 168.03125 2.285156 L 170.273438 13.542969 C 170.316406 13.761719 170.171875 13.976562 169.953125 14.023438 C 169.925781 14.027344 169.898438 14.03125 169.871094 14.03125 " fill-opacity="1" fill-rule="nonzero"/><path fill="#e9c261" d="M 163.285156 22.824219 C 163.109375 22.824219 162.949219 22.714844 162.894531 22.535156 L 160.875 15.886719 C 160.808594 15.671875 160.929688 15.445312 161.144531 15.378906 C 161.363281 15.3125 161.589844 15.4375 161.65625 15.652344 L 163.675781 22.300781 C 163.738281 22.515625 163.617188 22.742188 163.402344 22.808594 C 163.363281 22.820312 163.324219 22.824219 163.285156 22.824219 " fill-opacity="1" fill-rule="nonzero"/><path fill="#e9c261" d="M 155.574219 25.582031 C 155.414062 25.582031 155.261719 25.488281 155.199219 25.332031 L 152.535156 18.910156 C 152.449219 18.703125 152.550781 18.464844 152.757812 18.378906 C 152.964844 18.292969 153.203125 18.390625 153.289062 18.597656 L 155.949219 25.019531 C 156.035156 25.226562 155.9375 25.464844 155.730469 25.550781 C 155.679688 25.574219 155.625 25.582031 155.574219 25.582031 " fill-opacity="1" fill-rule="nonzero"/><path fill="#e9c261" d="M 152.914062 19.164062 C 152.753906 19.164062 152.601562 19.070312 152.535156 18.910156 L 148.148438 8.316406 C 148.0625 8.109375 148.164062 7.871094 148.371094 7.785156 C 148.578125 7.699219 148.816406 7.796875 148.902344 8.003906 L 153.289062 18.597656 C 153.375 18.808594 153.277344 19.046875 153.066406 19.132812 C 153.015625 19.152344 152.964844 19.164062 152.914062 19.164062 " fill-opacity="1" fill-rule="nonzero"/><path fill="#e9c261" d="M 148.175781 29.085938 C 148.03125 29.085938 147.890625 29.011719 147.816406 28.871094 L 144.539062 22.746094 C 144.433594 22.546875 144.511719 22.300781 144.707031 22.191406 C 144.90625 22.085938 145.152344 22.164062 145.257812 22.359375 L 148.535156 28.488281 C 148.640625 28.683594 148.566406 28.933594 148.367188 29.039062 C 148.308594 29.070312 148.238281 29.085938 148.175781 29.085938 " fill-opacity="1" fill-rule="nonzero"/><path fill="#e9c261" d="M 141.160156 33.304688 C 141.03125 33.304688 140.898438 33.238281 140.820312 33.121094 L 136.960938 27.34375 C 136.835938 27.15625 136.882812 26.90625 137.070312 26.78125 C 137.257812 26.65625 137.511719 26.707031 137.636719 26.894531 L 141.5 32.671875 C 141.625 32.855469 141.574219 33.109375 141.386719 33.234375 C 141.316406 33.28125 141.238281 33.304688 141.160156 33.304688 " fill-opacity="1" fill-rule="nonzero"/><path fill="#e9c261" d="M 137.296875 27.527344 C 137.167969 27.527344 137.039062 27.464844 136.960938 27.34375 L 130.578125 17.796875 C 130.457031 17.609375 130.503906 17.355469 130.691406 17.230469 C 130.878906 17.105469 131.132812 17.15625 131.257812 17.34375 L 137.636719 26.894531 C 137.761719 27.078125 137.710938 27.332031 137.523438 27.457031 C 137.457031 27.503906 137.375 27.527344 137.296875 27.527344 " fill-opacity="1" fill-rule="nonzero"/><path fill="#e9c261" d="M 134.585938 38.1875 C 134.46875 38.1875 134.351562 38.136719 134.269531 38.039062 L 129.863281 32.664062 C 129.71875 32.492188 129.746094 32.234375 129.917969 32.09375 C 130.09375 31.949219 130.351562 31.976562 130.492188 32.148438 L 134.898438 37.523438 C 135.042969 37.695312 135.019531 37.953125 134.84375 38.09375 C 134.769531 38.15625 134.675781 38.1875 134.585938 38.1875 " fill-opacity="1" fill-rule="nonzero"/><path fill="#e9c261" d="M 128.523438 43.683594 C 128.417969 43.683594 128.316406 43.644531 128.234375 43.5625 L 123.324219 38.652344 C 123.164062 38.492188 123.164062 38.234375 123.324219 38.074219 C 123.480469 37.914062 123.738281 37.914062 123.898438 38.074219 L 128.8125 42.988281 C 128.96875 43.148438 128.96875 43.40625 128.8125 43.5625 C 128.730469 43.644531 128.625 43.683594 128.523438 43.683594 " fill-opacity="1" fill-rule="nonzero"/><path fill="#e9c261" d="M 123.609375 38.769531 C 123.507812 38.769531 123.402344 38.730469 123.324219 38.652344 L 115.195312 30.523438 C 115.035156 30.363281 115.035156 30.105469 115.195312 29.949219 C 115.355469 29.789062 115.613281 29.789062 115.769531 29.949219 L 123.898438 38.074219 C 124.058594 38.234375 124.058594 38.492188 123.898438 38.652344 C 123.816406 38.730469 123.714844 38.769531 123.609375 38.769531 " fill-opacity="1" fill-rule="nonzero"/><path fill="#e9c261" d="M 123.027344 49.746094 C 122.9375 49.746094 122.84375 49.714844 122.769531 49.652344 L 117.394531 45.246094 C 117.222656 45.101562 117.195312 44.84375 117.339844 44.671875 C 117.480469 44.5 117.738281 44.472656 117.914062 44.613281 L 123.285156 49.023438 C 123.460938 49.164062 123.484375 49.421875 123.34375 49.59375 C 123.261719 49.695312 123.144531 49.746094 123.027344 49.746094 " fill-opacity="1" fill-rule="nonzero"/><path fill="#e9c261" d="M 118.144531 56.320312 C 118.066406 56.320312 117.984375 56.296875 117.917969 56.253906 L 112.140625 52.390625 C 111.953125 52.265625 111.902344 52.011719 112.027344 51.824219 C 112.152344 51.636719 112.40625 51.589844 112.59375 51.710938 L 118.367188 55.574219 C 118.558594 55.699219 118.605469 55.953125 118.480469 56.140625 C 118.402344 56.257812 118.273438 56.320312 118.144531 56.320312 " fill-opacity="1" fill-rule="nonzero"/><path fill="#e9c261" d="M 113.925781 63.335938 C 113.859375 63.335938 113.796875 63.320312 113.734375 63.289062 L 107.605469 60.011719 C 107.410156 59.90625 107.335938 59.660156 107.441406 59.460938 C 107.546875 59.261719 107.792969 59.1875 107.992188 59.292969 L 114.117188 62.570312 C 114.316406 62.675781 114.390625 62.921875 114.285156 63.121094 C 114.210938 63.257812 114.074219 63.335938 113.925781 63.335938 " fill-opacity="1" fill-rule="nonzero"/><path fill="#e9c261" d="M 112.367188 52.457031 C 112.289062 52.457031 112.210938 52.4375 112.140625 52.390625 L 102.589844 46.011719 C 102.402344 45.886719 102.355469 45.632812 102.476562 45.445312 C 102.605469 45.257812 102.855469 45.207031 103.042969 45.332031 L 112.59375 51.710938 C 112.78125 51.835938 112.828125 52.089844 112.707031 52.277344 C 112.625 52.394531 112.496094 52.457031 112.367188 52.457031 " fill-opacity="1" fill-rule="nonzero"/><path fill="#e9c261" d="M 110.421875 70.734375 C 110.371094 70.734375 110.320312 70.722656 110.269531 70.703125 L 103.847656 68.042969 C 103.640625 67.957031 103.542969 67.71875 103.628906 67.511719 C 103.714844 67.300781 103.953125 67.203125 104.160156 67.289062 L 110.578125 69.949219 C 110.785156 70.035156 110.886719 70.273438 110.800781 70.480469 C 110.734375 70.640625 110.582031 70.734375 110.421875 70.734375 " fill-opacity="1" fill-rule="nonzero"/><path fill="#e9c261" d="M 107.664062 78.445312 C 107.625 78.445312 107.585938 78.441406 107.546875 78.425781 L 100.898438 76.40625 C 100.683594 76.339844 100.5625 76.117188 100.628906 75.898438 C 100.691406 75.683594 100.921875 75.5625 101.136719 75.628906 L 107.785156 77.648438 C 108 77.714844 108.121094 77.941406 108.054688 78.15625 C 108 78.332031 107.839844 78.445312 107.664062 78.445312 " fill-opacity="1" fill-rule="nonzero"/><path fill="#e9c261" d="M 105.679688 86.386719 C 105.65625 86.386719 105.628906 86.382812 105.601562 86.378906 L 98.789062 85.023438 C 98.570312 84.980469 98.425781 84.765625 98.472656 84.546875 C 98.515625 84.324219 98.726562 84.183594 98.949219 84.226562 L 105.761719 85.578125 C 105.980469 85.621094 106.125 85.835938 106.082031 86.058594 C 106.042969 86.253906 105.871094 86.386719 105.679688 86.386719 " fill-opacity="1" fill-rule="nonzero"/><path fill="#e9c261" d="M 104.492188 94.484375 C 104.476562 94.484375 104.464844 94.484375 104.453125 94.484375 L 97.539062 93.800781 C 97.3125 93.777344 97.148438 93.582031 97.171875 93.355469 C 97.195312 93.132812 97.390625 92.96875 97.617188 92.992188 L 104.53125 93.671875 C 104.753906 93.691406 104.917969 93.894531 104.898438 94.117188 C 104.875 94.328125 104.699219 94.484375 104.492188 94.484375 " fill-opacity="1" fill-rule="nonzero"/><path fill="#e9c261" d="M 104.003906 68.074219 C 103.949219 68.074219 103.898438 68.0625 103.847656 68.042969 L 93.25 63.65625 C 93.042969 63.570312 92.945312 63.332031 93.03125 63.125 C 93.117188 62.914062 93.351562 62.816406 93.5625 62.902344 L 104.160156 67.289062 C 104.367188 67.375 104.464844 67.613281 104.378906 67.820312 C 104.3125 67.980469 104.164062 68.074219 104.003906 68.074219 " fill-opacity="1" fill-rule="nonzero"/><path fill="#e9c261" d="M 98.871094 85.03125 C 98.84375 85.03125 98.816406 85.03125 98.789062 85.023438 L 87.53125 82.785156 C 87.308594 82.738281 87.167969 82.527344 87.210938 82.304688 C 87.253906 82.085938 87.46875 81.941406 87.691406 81.984375 L 98.949219 84.226562 C 99.167969 84.269531 99.3125 84.484375 99.269531 84.707031 C 99.230469 84.898438 99.058594 85.03125 98.871094 85.03125 " fill-opacity="1" fill-rule="nonzero"/><g clip-path="url(#df456febc0)"><path fill="#bd8334" d="M 101.367188 102.101562 L 88.25 102.101562 C 85.242188 102.101562 85.242188 106.769531 88.25 106.769531 L 101.367188 106.769531 C 104.375 106.769531 104.375 102.101562 101.367188 102.101562 Z M 101.367188 102.101562 " fill-opacity="1" fill-rule="nonzero"/></g><path fill="#bd8334" d="M 114.429688 59.308594 L 102.707031 52.796875 C 100.074219 51.332031 97.71875 55.363281 100.351562 56.828125 L 112.074219 63.339844 C 114.707031 64.804688 117.058594 60.769531 114.429688 59.308594 Z M 114.429688 59.308594 " fill-opacity="1" fill-rule="nonzero"/><path fill="#bd8334" d="M 146.269531 28.59375 L 139.886719 17.289062 C 138.410156 14.671875 134.375 17.023438 135.855469 19.648438 L 142.238281 30.949219 C 143.71875 33.570312 147.75 31.21875 146.269531 28.59375 Z M 146.269531 28.59375 " fill-opacity="1" fill-rule="nonzero"/><g clip-path="url(#baad23a433)"><path fill="#bd8334" d="M 189.828125 18.335938 L 189.828125 5.191406 C 189.828125 2.179688 185.160156 2.179688 185.160156 5.191406 L 185.160156 18.335938 C 185.160156 21.347656 189.828125 21.347656 189.828125 18.335938 Z M 189.828125 18.335938 " fill-opacity="1" fill-rule="nonzero"/></g><path fill="#bd8334" d="M 232.832031 31.320312 L 239.128906 19.648438 C 240.558594 17 236.527344 14.640625 235.097656 17.289062 L 228.800781 28.964844 C 227.371094 31.613281 231.402344 33.96875 232.832031 31.320312 Z M 232.832031 31.320312 " fill-opacity="1" fill-rule="nonzero"/><path fill="#bd8334" d="M 263.078125 63.710938 L 274.632812 56.824219 C 277.214844 55.285156 274.871094 51.25 272.277344 52.796875 L 260.722656 59.679688 C 258.140625 61.21875 260.488281 65.253906 263.078125 63.710938 Z M 263.078125 63.710938 " fill-opacity="1" fill-rule="nonzero"/><path fill="#bd8334" d="M 273.386719 106.769531 L 286.738281 106.769531 C 289.746094 106.769531 289.746094 102.101562 286.738281 102.101562 L 273.386719 102.101562 C 270.375 102.101562 270.375 106.769531 273.386719 106.769531 Z M 273.386719 106.769531 " fill-opacity="1" fill-rule="nonzero"/><path fill="#bd8334" d="M 188.03125 98.476562 L 187.703125 98.476562 C 184.523438 98.476562 181.871094 101.132812 181.871094 104.3125 C 181.871094 107.496094 184.523438 110.148438 187.703125 110.148438 L 188.03125 110.148438 C 191.214844 110.148438 193.867188 107.496094 193.867188 104.3125 C 193.867188 101.132812 191.214844 98.476562 188.03125 98.476562 Z M 188.03125 98.476562 " fill-opacity="1" fill-rule="nonzero"/><path fill="#bd8334" d="M 188.832031 104.660156 L 188.832031 52.226562 C 188.832031 50.722656 186.496094 50.722656 186.496094 52.226562 L 186.496094 104.660156 C 186.496094 106.164062 188.832031 106.164062 188.832031 104.660156 Z M 188.832031 104.660156 " fill-opacity="1" fill-rule="nonzero"/><path fill="#bd8334" d="M 188.296875 103.722656 L 153.726562 43.902344 L 150.960938 39.117188 C 150.207031 37.816406 148.191406 38.988281 148.945312 40.292969 L 183.515625 100.117188 L 186.28125 104.902344 C 187.035156 106.203125 189.050781 105.027344 188.296875 103.722656 Z M 188.296875 103.722656 " fill-opacity="1" fill-rule="nonzero"/><g fill="#bd8334" fill-opacity="1"><g transform="translate(74.56975, 166.711946)"><g><path d="M 2.628906 -42.046875 C 3.679688 -39.996094 4.152344 -38.839844 4.78125 -36.421875 L 15.085938 0 L 21.285156 0 C 20.917969 -1.15625 20.917969 -1.734375 21.179688 -2.839844 L 30.800781 -36.738281 C 31.378906 -38.683594 31.535156 -39.734375 32.691406 -42.046875 L 31.113281 -42.046875 C 30.957031 -39.785156 30.484375 -38.683594 29.957031 -36.683594 L 20.078125 -1.785156 L 10.300781 -36.421875 C 9.671875 -38.683594 9.304688 -39.679688 9.199219 -42.046875 Z M 2.628906 -42.046875 "/></g></g></g><g fill="#bd8334" fill-opacity="1"><g transform="translate(109.882308, 166.711946)"><g><path d="M 26.648438 1.050781 C 40.101562 1.050781 50.191406 -8.09375 50.191406 -21.023438 C 50.191406 -33.898438 40.101562 -43.097656 26.648438 -43.097656 C 13.191406 -43.097656 3.152344 -33.898438 3.152344 -21.023438 C 3.152344 -8.09375 13.191406 1.050781 26.648438 1.050781 Z M 26.648438 0.210938 C 15.503906 0.210938 8.828125 -9.933594 8.828125 -21.023438 C 8.828125 -32.058594 15.503906 -42.257812 26.648438 -42.257812 C 37.789062 -42.257812 44.515625 -32.058594 44.515625 -21.023438 C 44.515625 -9.933594 37.789062 0.210938 26.648438 0.210938 Z M 26.648438 0.210938 "/></g></g></g><g fill="#bd8334" fill-opacity="1"><g transform="translate(163.218993, 166.711946)"><g><path d="M 3.785156 -42.046875 C 4.097656 -37.632812 4.203125 -35.527344 4.203125 -31.691406 L 4.203125 -10.355469 C 4.203125 -6.515625 4.097656 -4.414062 3.679688 0 L 26.910156 0 L 28.433594 -2.839844 C 22.546875 -1.105469 18.972656 -0.839844 13.769531 -0.839844 L 9.355469 -0.839844 L 9.355469 -31.691406 C 9.355469 -35.527344 9.460938 -37.632812 9.777344 -42.046875 Z M 3.785156 -42.046875 "/></g></g></g><g fill="#bd8334" fill-opacity="1"><g transform="translate(193.749648, 166.711946)"><g><path d="M 30.484375 -5.625 L 20.234375 -42.046875 L 14.03125 -42.046875 C 14.402344 -40.890625 14.402344 -40.3125 14.136719 -39.207031 L 4.519531 -5.308594 C 3.941406 -3.363281 3.785156 -2.3125 2.628906 0 L 4.152344 0 C 4.363281 -2.261719 4.78125 -3.363281 5.359375 -5.359375 L 8.199219 -15.292969 L 22.285156 -15.292969 L 25.019531 -5.625 C 25.648438 -3.363281 26.015625 -2.363281 26.121094 0 L 32.691406 0 C 31.640625 -2.050781 31.167969 -3.207031 30.484375 -5.625 Z M 8.410156 -16.136719 L 15.242188 -40.257812 L 22.074219 -16.136719 Z M 8.410156 -16.136719 "/></g></g></g><g fill="#bd8334" fill-opacity="1"><g transform="translate(229.062207, 166.711946)"><g><path d="M 28.011719 -9.984375 C 25.492188 -16.292969 21.652344 -18.710938 17.082031 -19.550781 C 24.808594 -20.128906 30.902344 -22.808594 30.902344 -30.746094 C 30.902344 -39.890625 22.757812 -42.046875 13.402344 -42.046875 L 3.679688 -42.046875 C 3.996094 -37.632812 4.097656 -35.527344 4.097656 -31.691406 L 4.097656 -10.355469 C 4.097656 -6.515625 3.996094 -4.414062 3.679688 0 L 9.671875 0 C 9.355469 -4.414062 9.25 -6.515625 9.25 -10.355469 L 9.25 -19.445312 L 11.140625 -19.445312 C 16.554688 -19.445312 19.8125 -17.871094 22.757812 -9.617188 C 25.332031 -2.261719 29.273438 0 37.945312 0 L 37.945312 -0.789062 C 33.058594 -0.789062 30.695312 -2.941406 28.011719 -9.984375 Z M 9.25 -20.289062 L 9.25 -41.207031 L 13.351562 -41.207031 C 19.5 -41.207031 25.542969 -39.101562 25.542969 -30.746094 C 25.542969 -22.390625 19.5 -20.289062 13.351562 -20.289062 Z M 9.25 -20.289062 "/></g></g></g><g fill="#bd8334" fill-opacity="1"><g transform="translate(268.946488, 166.711946)"><g><path d="M 3.679688 -42.046875 C 4.097656 -37.632812 4.152344 -35.527344 4.152344 -31.691406 L 4.152344 -10.355469 C 4.152344 -6.515625 4.097656 -4.414062 3.679688 0 L 28.382812 0 L 29.90625 -2.839844 C 24.019531 -1.105469 20.445312 -0.839844 15.242188 -0.839844 L 9.355469 -0.839844 L 9.355469 -21.863281 L 12.71875 -21.863281 C 15.503906 -21.863281 18.34375 -21.863281 23.230469 -21.339844 L 23.230469 -23.230469 C 18.34375 -22.703125 15.503906 -22.703125 12.71875 -22.703125 L 9.355469 -22.703125 L 9.355469 -41.207031 L 14.136719 -41.207031 C 16.503906 -41.207031 21.652344 -40.890625 26.121094 -39.101562 L 28.488281 -42.046875 Z M 3.679688 -42.046875 "/></g></g></g><g fill="#bd8334" fill-opacity="1"><g transform="translate(97.770972, 198.660471)"><g><path d="M 13.460938 -9.734375 C 13.460938 -11.472656 13.527344 -12.28125 13.664062 -13.496094 L 9.765625 -13.496094 C 9.917969 -12.28125 9.96875 -11.472656 9.96875 -9.734375 L 9.96875 -6.949219 L 4.875 -6.949219 L 4.875 -9.734375 C 4.875 -11.472656 4.925781 -12.28125 5.078125 -13.496094 L 1.179688 -13.496094 C 1.332031 -12.28125 1.382812 -11.472656 1.382812 -9.734375 L 1.382812 -3.761719 C 1.382812 -2.023438 1.332031 -1.214844 1.179688 0 L 5.078125 0 C 4.925781 -1.214844 4.875 -2.023438 4.875 -3.761719 L 4.875 -6.546875 L 9.96875 -6.546875 L 9.96875 -3.761719 C 9.96875 -2.023438 9.917969 -1.214844 9.765625 0 L 13.664062 0 C 13.527344 -1.214844 13.460938 -2.023438 13.460938 -3.761719 Z M 13.460938 -9.734375 "/></g></g></g><g fill="#bd8334" fill-opacity="1"><g transform="translate(117.000941, 198.660471)"><g><path d="M 9.246094 0.335938 C 13.898438 0.335938 17.460938 -2.226562 17.460938 -6.746094 C 17.460938 -11.25 13.898438 -13.832031 9.246094 -13.832031 C 4.554688 -13.832031 1.011719 -11.25 1.011719 -6.746094 C 1.011719 -2.226562 4.554688 0.335938 9.246094 0.335938 Z M 9.246094 -0.0664062 C 6.125 -0.0664062 4.757812 -3.1875 4.757812 -6.746094 C 4.757812 -10.289062 6.125 -13.429688 9.246094 -13.429688 C 12.332031 -13.429688 13.714844 -10.289062 13.714844 -6.746094 C 13.714844 -3.1875 12.332031 -0.0664062 9.246094 -0.0664062 Z M 9.246094 -0.0664062 "/></g></g></g><g fill="#bd8334" fill-opacity="1"><g transform="translate(139.857109, 198.660471)"><g><path d="M 11.65625 -3.105469 C 10.78125 -5.144531 9.328125 -5.988281 7.558594 -6.292969 C 10.207031 -6.511719 12.28125 -7.320312 12.28125 -9.867188 C 12.28125 -12.921875 9.277344 -13.496094 5.902344 -13.496094 L 1.179688 -13.496094 C 1.332031 -12.28125 1.382812 -11.472656 1.382812 -9.734375 L 1.382812 -3.761719 C 1.382812 -2.023438 1.332031 -1.214844 1.179688 0 L 5.078125 0 C 4.925781 -1.214844 4.875 -2.023438 4.875 -3.761719 L 4.875 -6.242188 L 5.113281 -6.242188 C 6.648438 -6.242188 7.136719 -5.785156 8.03125 -2.984375 C 8.90625 -0.269531 11.183594 0 14.675781 0 L 14.675781 -0.355469 C 13.191406 -0.355469 12.484375 -1.148438 11.65625 -3.105469 Z M 4.875 -6.648438 L 4.875 -13.089844 L 5.855469 -13.089844 C 7.457031 -13.089844 8.773438 -12.414062 8.773438 -9.867188 C 8.773438 -7.320312 7.457031 -6.648438 5.855469 -6.648438 Z M 4.875 -6.648438 "/></g></g></g><g fill="#bd8334" fill-opacity="1"><g transform="translate(159.474995, 198.660471)"><g><path d="M 1.214844 -13.496094 C 1.367188 -12.28125 1.417969 -11.472656 1.417969 -9.734375 L 1.417969 -3.761719 C 1.417969 -2.023438 1.332031 -1.214844 1.179688 0 L 10.476562 0 L 11.167969 -1.535156 C 8.722656 -0.523438 7.792969 -0.40625 5.972656 -0.40625 L 4.910156 -0.40625 L 4.910156 -9.734375 C 4.910156 -11.472656 4.960938 -12.28125 5.113281 -13.496094 Z M 1.214844 -13.496094 "/></g></g></g><g fill="#bd8334" fill-opacity="1"><g transform="translate(175.702803, 198.660471)"><g><path d="M 9.246094 0.335938 C 13.898438 0.335938 17.460938 -2.226562 17.460938 -6.746094 C 17.460938 -11.25 13.898438 -13.832031 9.246094 -13.832031 C 4.554688 -13.832031 1.011719 -11.25 1.011719 -6.746094 C 1.011719 -2.226562 4.554688 0.335938 9.246094 0.335938 Z M 9.246094 -0.0664062 C 6.125 -0.0664062 4.757812 -3.1875 4.757812 -6.746094 C 4.757812 -10.289062 6.125 -13.429688 9.246094 -13.429688 C 12.332031 -13.429688 13.714844 -10.289062 13.714844 -6.746094 C 13.714844 -3.1875 12.332031 -0.0664062 9.246094 -0.0664062 Z M 9.246094 -0.0664062 "/></g></g></g><g fill="#bd8334" fill-opacity="1"><g transform="translate(198.558975, 198.660471)"><g><path d="M 15.605469 -6.375 L 15.605469 -6.78125 L 8.046875 -6.78125 L 9.160156 -5.195312 C 10.507812 -6.207031 11.742188 -6.375 12.785156 -6.375 L 13.628906 -6.375 C 13.445312 -2.917969 11.84375 -0.691406 9.210938 -0.691406 C 6.207031 -0.691406 4.757812 -3.558594 4.757812 -7.152344 C 4.757812 -10.628906 5.972656 -13.429688 8.332031 -13.429688 C 10.171875 -13.429688 11.03125 -11.503906 11.371094 -9.09375 L 14.558594 -9.988281 C 13.394531 -12.230469 11.371094 -13.832031 8.332031 -13.832031 C 4.335938 -13.832031 1.011719 -11.300781 1.011719 -6.917969 C 1.011719 -2.53125 3.929688 0.335938 8.082031 0.335938 C 11.300781 0.335938 12.9375 -1.449219 13.628906 -4.132812 L 13.628906 -3.746094 C 13.628906 -2.445312 13.5625 -1.265625 13.394531 0 L 14.507812 0 C 14.339844 -1.265625 14.273438 -2.445312 14.273438 -3.746094 L 14.273438 -6.375 Z M 15.605469 -6.375 "/></g></g></g><g fill="#bd8334" fill-opacity="1"><g transform="translate(218.88523, 198.660471)"><g><path d="M 1.179688 -13.496094 C 1.332031 -12.28125 1.398438 -11.472656 1.398438 -9.734375 L 1.398438 -3.761719 C 1.398438 -2.023438 1.332031 -1.214844 1.179688 0 L 10.644531 0 L 11.335938 -1.535156 C 8.890625 -0.523438 7.960938 -0.40625 6.140625 -0.40625 L 4.875 -0.40625 L 4.875 -6.882812 L 5.683594 -6.882812 C 6.578125 -6.882812 7.488281 -6.882812 9.058594 -6.714844 L 9.058594 -7.457031 C 7.488281 -7.289062 6.578125 -7.289062 5.683594 -7.289062 L 4.875 -7.289062 L 4.875 -13.089844 L 6.277344 -13.089844 C 7.320312 -13.089844 8.554688 -12.921875 9.917969 -11.910156 L 11.015625 -13.496094 Z M 1.179688 -13.496094 "/></g></g></g><g fill="#bd8334" fill-opacity="1"><g transform="translate(235.113038, 198.660471)"><g><path d="M 11.65625 -3.105469 C 10.78125 -5.144531 9.328125 -5.988281 7.558594 -6.292969 C 10.207031 -6.511719 12.28125 -7.320312 12.28125 -9.867188 C 12.28125 -12.921875 9.277344 -13.496094 5.902344 -13.496094 L 1.179688 -13.496094 C 1.332031 -12.28125 1.382812 -11.472656 1.382812 -9.734375 L 1.382812 -3.761719 C 1.382812 -2.023438 1.332031 -1.214844 1.179688 0 L 5.078125 0 C 4.925781 -1.214844 4.875 -2.023438 4.875 -3.761719 L 4.875 -6.242188 L 5.113281 -6.242188 C 6.648438 -6.242188 7.136719 -5.785156 8.03125 -2.984375 C 8.90625 -0.269531 11.183594 0 14.675781 0 L 14.675781 -0.355469 C 13.191406 -0.355469 12.484375 -1.148438 11.65625 -3.105469 Z M 4.875 -6.648438 L 4.875 -13.089844 L 5.855469 -13.089844 C 7.457031 -13.089844 8.773438 -12.414062 8.773438 -9.867188 C 8.773438 -7.320312 7.457031 -6.648438 5.855469 -6.648438 Z M 4.875 -6.648438 "/></g></g></g><g fill="#bd8334" fill-opacity="1"><g transform="translate(254.730921, 198.660471)"><g><path d="M 1.179688 -13.496094 C 1.332031 -12.28125 1.382812 -11.472656 1.382812 -9.734375 L 1.382812 -3.761719 C 1.382812 -2.023438 1.332031 -1.214844 1.179688 0 L 5.078125 0 C 4.925781 -1.214844 4.875 -2.023438 4.875 -3.761719 L 4.875 -9.734375 C 4.875 -11.472656 4.925781 -12.28125 5.078125 -13.496094 Z M 1.179688 -13.496094 "/></g></g></g><g fill="#bd8334" fill-opacity="1"><g transform="translate(265.376057, 198.660471)"><g><path d="M 1.179688 -13.496094 C 1.332031 -12.28125 1.398438 -11.472656 1.398438 -9.734375 L 1.398438 -3.761719 C 1.398438 -2.023438 1.332031 -1.214844 1.179688 0 L 10.644531 0 L 11.335938 -1.535156 C 8.890625 -0.523438 7.960938 -0.40625 6.140625 -0.40625 L 4.875 -0.40625 L 4.875 -6.882812 L 5.683594 -6.882812 C 6.578125 -6.882812 7.488281 -6.882812 9.058594 -6.714844 L 9.058594 -7.457031 C 7.488281 -7.289062 6.578125 -7.289062 5.683594 -7.289062 L 4.875 -7.289062 L 4.875 -13.089844 L 6.277344 -13.089844 C 7.320312 -13.089844 8.554688 -12.921875 9.917969 -11.910156 L 11.015625 -13.496094 Z M 1.179688 -13.496094 "/></g></g></g></svg>