<svg xmlns="http://www.w3.org/2000/svg" xmlns:xlink="http://www.w3.org/1999/xlink" width="500" zoomAndPan="magnify" viewBox="0 0 375 267.749983" height="357" preserveAspectRatio="xMidYMid meet" version="1.0"><defs><g/><clipPath id="1be24d1c38"><path d="M 187 0.679688 L 188 0.679688 L 188 13 L 187 13 Z M 187 0.679688 " clip-rule="nonzero"/></clipPath><clipPath id="411fb61cb4"><path d="M 85.21875 102 L 104 102 L 104 108 L 85.21875 108 Z M 85.21875 102 " clip-rule="nonzero"/></clipPath><clipPath id="f9fcd02035"><path d="M 271 102 L 289.78125 102 L 289.78125 108 L 271 108 Z M 271 102 " clip-rule="nonzero"/></clipPath><clipPath id="6d32ee04a1"><path d="M 42 215.53125 L 329 215.53125 L 329 267.5 L 42 267.5 Z M 42 215.53125 " clip-rule="nonzero"/></clipPath></defs><path fill="#e9c261" d="M 276.15625 85.738281 C 275.964844 85.738281 275.796875 85.605469 275.753906 85.410156 C 275.710938 85.1875 275.855469 84.972656 276.074219 84.929688 L 287.339844 82.691406 C 287.5625 82.648438 287.773438 82.789062 287.816406 83.011719 C 287.863281 83.230469 287.71875 83.445312 287.5 83.488281 L 276.234375 85.730469 C 276.207031 85.734375 276.179688 85.738281 276.15625 85.738281 " fill-opacity="1" fill-rule="nonzero"/><path fill="#e9c261" d="M 271.019531 68.773438 C 270.859375 68.773438 270.710938 68.679688 270.644531 68.523438 C 270.558594 68.316406 270.65625 68.074219 270.867188 67.988281 L 281.464844 63.601562 C 281.671875 63.515625 281.910156 63.613281 281.996094 63.820312 C 282.082031 64.03125 281.984375 64.269531 281.777344 64.355469 L 271.175781 68.742188 C 271.125 68.761719 271.074219 68.773438 271.019531 68.773438 " fill-opacity="1" fill-rule="nonzero"/><path fill="#e9c261" d="M 270.53125 95.191406 C 270.324219 95.191406 270.148438 95.035156 270.125 94.824219 C 270.105469 94.601562 270.269531 94.402344 270.492188 94.378906 L 277.40625 93.699219 C 277.636719 93.671875 277.832031 93.839844 277.851562 94.0625 C 277.875 94.289062 277.710938 94.488281 277.488281 94.507812 L 270.570312 95.191406 C 270.558594 95.191406 270.542969 95.191406 270.53125 95.191406 " fill-opacity="1" fill-rule="nonzero"/><path fill="#e9c261" d="M 269.34375 87.089844 C 269.152344 87.089844 268.980469 86.957031 268.941406 86.761719 C 268.898438 86.542969 269.042969 86.328125 269.261719 86.285156 L 276.074219 84.929688 C 276.296875 84.886719 276.511719 85.03125 276.554688 85.25 C 276.597656 85.472656 276.457031 85.6875 276.234375 85.730469 L 269.421875 87.082031 C 269.394531 87.089844 269.367188 87.089844 269.34375 87.089844 " fill-opacity="1" fill-rule="nonzero"/><path fill="#e9c261" d="M 267.355469 79.148438 C 267.183594 79.148438 267.019531 79.035156 266.96875 78.859375 C 266.902344 78.644531 267.023438 78.417969 267.238281 78.351562 L 273.890625 76.332031 C 274.105469 76.265625 274.332031 76.386719 274.398438 76.601562 C 274.460938 76.816406 274.34375 77.042969 274.128906 77.109375 L 267.476562 79.128906 C 267.4375 79.144531 267.398438 79.148438 267.355469 79.148438 " fill-opacity="1" fill-rule="nonzero"/><path fill="#e9c261" d="M 262.65625 53.152344 C 262.523438 53.152344 262.394531 53.089844 262.316406 52.972656 C 262.191406 52.785156 262.242188 52.535156 262.429688 52.40625 L 271.980469 46.027344 C 272.167969 45.902344 272.421875 45.953125 272.542969 46.140625 C 272.671875 46.328125 272.621094 46.582031 272.433594 46.703125 L 262.882812 53.085938 C 262.8125 53.132812 262.734375 53.152344 262.65625 53.152344 " fill-opacity="1" fill-rule="nonzero"/><path fill="#e9c261" d="M 264.597656 71.433594 C 264.4375 71.433594 264.289062 71.339844 264.222656 71.183594 C 264.136719 70.976562 264.234375 70.738281 264.441406 70.652344 L 270.867188 67.988281 C 271.074219 67.90625 271.3125 68.003906 271.398438 68.210938 C 271.484375 68.417969 271.382812 68.65625 271.175781 68.742188 L 264.753906 71.402344 C 264.703125 71.425781 264.652344 71.433594 264.597656 71.433594 " fill-opacity="1" fill-rule="nonzero"/><path fill="#e9c261" d="M 261.09375 64.035156 C 260.949219 64.035156 260.808594 63.957031 260.734375 63.820312 C 260.628906 63.621094 260.703125 63.375 260.902344 63.269531 L 267.03125 59.992188 C 267.230469 59.886719 267.476562 59.960938 267.582031 60.15625 C 267.6875 60.355469 267.613281 60.605469 267.414062 60.710938 L 261.285156 63.988281 C 261.226562 64.019531 261.160156 64.035156 261.09375 64.035156 " fill-opacity="1" fill-rule="nonzero"/><path fill="#e9c261" d="M 256.875 57.015625 C 256.746094 57.015625 256.617188 56.953125 256.539062 56.835938 C 256.410156 56.648438 256.460938 56.398438 256.652344 56.269531 L 262.429688 52.40625 C 262.617188 52.285156 262.867188 52.332031 262.992188 52.519531 C 263.117188 52.707031 263.070312 52.960938 262.882812 53.085938 L 257.101562 56.949219 C 257.035156 56.996094 256.953125 57.015625 256.875 57.015625 " fill-opacity="1" fill-rule="nonzero"/><path fill="#e9c261" d="M 251.40625 39.464844 C 251.304688 39.464844 251.199219 39.421875 251.121094 39.34375 C 250.960938 39.183594 250.960938 38.925781 251.121094 38.769531 L 259.25 30.636719 C 259.410156 30.476562 259.667969 30.476562 259.828125 30.636719 C 259.984375 30.796875 259.984375 31.054688 259.828125 31.214844 L 251.695312 39.34375 C 251.617188 39.421875 251.511719 39.464844 251.40625 39.464844 " fill-opacity="1" fill-rule="nonzero"/><path fill="#e9c261" d="M 251.992188 50.441406 C 251.875 50.441406 251.757812 50.390625 251.675781 50.289062 C 251.53125 50.117188 251.558594 49.859375 251.730469 49.71875 L 257.109375 45.308594 C 257.28125 45.164062 257.539062 45.191406 257.679688 45.367188 C 257.824219 45.539062 257.796875 45.796875 257.625 45.9375 L 252.25 50.347656 C 252.171875 50.410156 252.082031 50.441406 251.992188 50.441406 " fill-opacity="1" fill-rule="nonzero"/><path fill="#e9c261" d="M 246.492188 44.378906 C 246.390625 44.378906 246.285156 44.335938 246.207031 44.257812 C 246.046875 44.097656 246.046875 43.839844 246.207031 43.679688 L 251.121094 38.769531 C 251.28125 38.605469 251.535156 38.605469 251.695312 38.769531 C 251.855469 38.925781 251.855469 39.183594 251.695312 39.34375 L 246.78125 44.257812 C 246.703125 44.335938 246.597656 44.378906 246.492188 44.378906 " fill-opacity="1" fill-rule="nonzero"/><path fill="#e9c261" d="M 240.429688 38.878906 C 240.339844 38.878906 240.246094 38.847656 240.171875 38.785156 C 239.996094 38.644531 239.972656 38.386719 240.113281 38.214844 L 244.523438 32.839844 C 244.667969 32.664062 244.925781 32.640625 245.097656 32.78125 C 245.269531 32.925781 245.296875 33.183594 245.15625 33.355469 L 240.746094 38.730469 C 240.664062 38.828125 240.546875 38.878906 240.429688 38.878906 " fill-opacity="1" fill-rule="nonzero"/><path fill="#e9c261" d="M 237.714844 28.214844 C 237.636719 28.214844 237.558594 28.195312 237.492188 28.148438 C 237.300781 28.019531 237.253906 27.769531 237.378906 27.582031 L 243.757812 18.03125 C 243.882812 17.84375 244.136719 17.792969 244.324219 17.917969 C 244.511719 18.042969 244.5625 18.296875 244.4375 18.484375 L 238.054688 28.035156 C 237.976562 28.152344 237.847656 28.214844 237.714844 28.214844 " fill-opacity="1" fill-rule="nonzero"/><path fill="#e9c261" d="M 233.851562 33.992188 C 233.773438 33.992188 233.695312 33.972656 233.628906 33.925781 C 233.4375 33.800781 233.386719 33.546875 233.515625 33.359375 L 237.378906 27.582031 C 237.503906 27.394531 237.757812 27.34375 237.941406 27.46875 C 238.128906 27.59375 238.179688 27.847656 238.054688 28.035156 L 234.191406 33.8125 C 234.113281 33.929688 233.984375 33.992188 233.851562 33.992188 " fill-opacity="1" fill-rule="nonzero"/><path fill="#e9c261" d="M 226.835938 29.777344 C 226.769531 29.777344 226.707031 29.761719 226.644531 29.726562 C 226.445312 29.621094 226.371094 29.375 226.476562 29.175781 L 229.753906 23.046875 C 229.859375 22.851562 230.105469 22.773438 230.304688 22.878906 C 230.503906 22.988281 230.578125 23.234375 230.472656 23.433594 L 227.195312 29.5625 C 227.121094 29.699219 226.980469 29.777344 226.835938 29.777344 " fill-opacity="1" fill-rule="nonzero"/><path fill="#e9c261" d="M 222.097656 19.847656 C 222.046875 19.847656 221.992188 19.839844 221.941406 19.820312 C 221.734375 19.734375 221.632812 19.496094 221.71875 19.285156 L 226.109375 8.6875 C 226.195312 8.480469 226.433594 8.378906 226.640625 8.464844 C 226.847656 8.550781 226.949219 8.789062 226.863281 8.996094 L 222.472656 19.597656 C 222.40625 19.753906 222.257812 19.847656 222.097656 19.847656 " fill-opacity="1" fill-rule="nonzero"/><path fill="#e9c261" d="M 219.4375 26.273438 C 219.382812 26.273438 219.332031 26.261719 219.28125 26.242188 C 219.070312 26.152344 218.972656 25.914062 219.058594 25.707031 L 221.71875 19.285156 C 221.804688 19.078125 222.046875 18.980469 222.253906 19.066406 C 222.460938 19.152344 222.558594 19.390625 222.472656 19.597656 L 219.8125 26.019531 C 219.75 26.175781 219.59375 26.273438 219.4375 26.273438 " fill-opacity="1" fill-rule="nonzero"/><path fill="#e9c261" d="M 211.722656 23.511719 C 211.683594 23.511719 211.644531 23.507812 211.601562 23.496094 C 211.386719 23.429688 211.265625 23.203125 211.332031 22.988281 L 213.351562 16.335938 C 213.417969 16.121094 213.648438 16 213.863281 16.066406 C 214.078125 16.128906 214.199219 16.359375 214.132812 16.574219 L 212.113281 23.222656 C 212.058594 23.402344 211.894531 23.511719 211.722656 23.511719 " fill-opacity="1" fill-rule="nonzero"/><path fill="#e9c261" d="M 205.132812 14.714844 C 205.105469 14.714844 205.078125 14.710938 205.050781 14.707031 C 204.832031 14.664062 204.6875 14.449219 204.734375 14.230469 L 206.972656 2.964844 C 207.019531 2.742188 207.230469 2.601562 207.453125 2.644531 C 207.675781 2.6875 207.816406 2.902344 207.773438 3.125 L 205.53125 14.386719 C 205.492188 14.582031 205.324219 14.714844 205.132812 14.714844 " fill-opacity="1" fill-rule="nonzero"/><path fill="#e9c261" d="M 203.777344 21.527344 C 203.753906 21.527344 203.726562 21.523438 203.703125 21.519531 C 203.480469 21.476562 203.335938 21.261719 203.378906 21.042969 L 204.734375 14.230469 C 204.777344 14.007812 204.992188 13.863281 205.210938 13.910156 C 205.433594 13.953125 205.578125 14.167969 205.53125 14.386719 L 204.179688 21.199219 C 204.140625 21.394531 203.96875 21.527344 203.777344 21.527344 " fill-opacity="1" fill-rule="nonzero"/><path fill="#e9c261" d="M 195.679688 20.335938 C 195.664062 20.335938 195.652344 20.335938 195.640625 20.335938 C 195.414062 20.3125 195.25 20.113281 195.273438 19.890625 L 195.953125 12.976562 C 195.976562 12.75 196.171875 12.585938 196.398438 12.609375 C 196.621094 12.632812 196.785156 12.832031 196.765625 13.054688 L 196.085938 19.972656 C 196.0625 20.183594 195.886719 20.335938 195.679688 20.335938 " fill-opacity="1" fill-rule="nonzero"/><path fill="#e9c261" d="M 187.5 19.941406 C 187.277344 19.941406 187.09375 19.757812 187.09375 19.53125 L 187.09375 12.585938 C 187.09375 12.359375 187.277344 12.175781 187.5 12.175781 C 187.722656 12.175781 187.90625 12.359375 187.90625 12.585938 L 187.90625 19.53125 C 187.90625 19.757812 187.722656 19.941406 187.5 19.941406 " fill-opacity="1" fill-rule="nonzero"/><g clip-path="url(#1be24d1c38)"><path fill="#e9c261" d="M 187.5 12.992188 C 187.277344 12.992188 187.09375 12.808594 187.09375 12.585938 L 187.09375 1.089844 C 187.09375 0.863281 187.277344 0.679688 187.5 0.679688 C 187.722656 0.679688 187.90625 0.863281 187.90625 1.089844 L 187.90625 12.585938 C 187.90625 12.808594 187.722656 12.992188 187.5 12.992188 " fill-opacity="1" fill-rule="nonzero"/></g><path fill="#e9c261" d="M 179.320312 20.335938 C 179.113281 20.335938 178.9375 20.183594 178.914062 19.972656 L 178.234375 13.054688 C 178.214844 12.832031 178.378906 12.632812 178.601562 12.609375 C 178.828125 12.585938 179.023438 12.75 179.046875 12.976562 L 179.726562 19.890625 C 179.75 20.113281 179.585938 20.3125 179.359375 20.335938 C 179.347656 20.335938 179.335938 20.335938 179.320312 20.335938 " fill-opacity="1" fill-rule="nonzero"/><path fill="#e9c261" d="M 171.222656 21.527344 C 171.03125 21.527344 170.859375 21.394531 170.820312 21.199219 L 169.46875 14.386719 C 169.421875 14.167969 169.566406 13.953125 169.789062 13.910156 C 170.007812 13.863281 170.222656 14.007812 170.265625 14.230469 L 171.621094 21.042969 C 171.664062 21.261719 171.519531 21.476562 171.300781 21.519531 C 171.273438 21.523438 171.246094 21.527344 171.222656 21.527344 " fill-opacity="1" fill-rule="nonzero"/><path fill="#e9c261" d="M 169.867188 14.714844 C 169.675781 14.714844 169.507812 14.582031 169.46875 14.386719 L 167.226562 3.125 C 167.183594 2.902344 167.324219 2.6875 167.546875 2.644531 C 167.769531 2.601562 167.984375 2.742188 168.027344 2.964844 L 170.265625 14.230469 C 170.308594 14.449219 170.167969 14.664062 169.949219 14.707031 C 169.921875 14.710938 169.894531 14.714844 169.867188 14.714844 " fill-opacity="1" fill-rule="nonzero"/><path fill="#e9c261" d="M 163.277344 23.511719 C 163.105469 23.511719 162.941406 23.402344 162.886719 23.222656 L 160.867188 16.574219 C 160.800781 16.359375 160.921875 16.128906 161.136719 16.066406 C 161.355469 16 161.582031 16.121094 161.648438 16.335938 L 163.667969 22.988281 C 163.734375 23.203125 163.613281 23.429688 163.398438 23.496094 C 163.355469 23.507812 163.316406 23.511719 163.277344 23.511719 " fill-opacity="1" fill-rule="nonzero"/><path fill="#e9c261" d="M 155.5625 26.273438 C 155.40625 26.273438 155.253906 26.175781 155.1875 26.019531 L 152.527344 19.597656 C 152.441406 19.390625 152.539062 19.152344 152.746094 19.066406 C 152.953125 18.976562 153.195312 19.078125 153.28125 19.285156 L 155.941406 25.707031 C 156.027344 25.914062 155.929688 26.152344 155.71875 26.242188 C 155.667969 26.261719 155.617188 26.273438 155.5625 26.273438 " fill-opacity="1" fill-rule="nonzero"/><path fill="#e9c261" d="M 152.902344 19.847656 C 152.742188 19.847656 152.59375 19.753906 152.527344 19.597656 L 148.136719 8.996094 C 148.050781 8.789062 148.152344 8.550781 148.359375 8.464844 C 148.566406 8.378906 148.804688 8.480469 148.890625 8.6875 L 153.28125 19.285156 C 153.367188 19.496094 153.265625 19.734375 153.058594 19.820312 C 153.007812 19.839844 152.953125 19.847656 152.902344 19.847656 " fill-opacity="1" fill-rule="nonzero"/><path fill="#e9c261" d="M 148.164062 29.777344 C 148.019531 29.777344 147.878906 29.699219 147.804688 29.5625 L 144.527344 23.433594 C 144.421875 23.234375 144.496094 22.988281 144.695312 22.878906 C 144.894531 22.773438 145.140625 22.851562 145.246094 23.046875 L 148.523438 29.175781 C 148.628906 29.375 148.554688 29.621094 148.355469 29.726562 C 148.296875 29.761719 148.230469 29.777344 148.164062 29.777344 " fill-opacity="1" fill-rule="nonzero"/><path fill="#e9c261" d="M 141.148438 33.992188 C 141.015625 33.992188 140.886719 33.929688 140.808594 33.8125 L 136.945312 28.035156 C 136.820312 27.847656 136.871094 27.59375 137.058594 27.46875 C 137.242188 27.34375 137.496094 27.394531 137.621094 27.582031 L 141.484375 33.359375 C 141.609375 33.546875 141.5625 33.800781 141.371094 33.925781 C 141.304688 33.972656 141.226562 33.992188 141.148438 33.992188 " fill-opacity="1" fill-rule="nonzero"/><path fill="#e9c261" d="M 137.285156 28.214844 C 137.152344 28.214844 137.023438 28.152344 136.945312 28.035156 L 130.5625 18.484375 C 130.4375 18.296875 130.488281 18.042969 130.675781 17.917969 C 130.863281 17.792969 131.117188 17.84375 131.242188 18.03125 L 137.621094 27.582031 C 137.746094 27.769531 137.699219 28.019531 137.507812 28.148438 C 137.441406 28.195312 137.363281 28.214844 137.285156 28.214844 " fill-opacity="1" fill-rule="nonzero"/><path fill="#e9c261" d="M 134.570312 38.878906 C 134.453125 38.878906 134.335938 38.828125 134.253906 38.730469 L 129.84375 33.355469 C 129.703125 33.183594 129.730469 32.925781 129.902344 32.78125 C 130.074219 32.640625 130.332031 32.664062 130.476562 32.839844 L 134.886719 38.214844 C 135.027344 38.386719 135.003906 38.644531 134.828125 38.785156 C 134.753906 38.847656 134.660156 38.878906 134.570312 38.878906 " fill-opacity="1" fill-rule="nonzero"/><path fill="#e9c261" d="M 128.507812 44.378906 C 128.402344 44.378906 128.296875 44.335938 128.21875 44.257812 L 123.304688 39.34375 C 123.144531 39.183594 123.144531 38.925781 123.304688 38.769531 C 123.460938 38.605469 123.71875 38.605469 123.878906 38.769531 L 128.792969 43.679688 C 128.953125 43.839844 128.953125 44.097656 128.792969 44.257812 C 128.714844 44.335938 128.609375 44.378906 128.507812 44.378906 " fill-opacity="1" fill-rule="nonzero"/><path fill="#e9c261" d="M 123.589844 39.464844 C 123.488281 39.464844 123.382812 39.421875 123.304688 39.34375 L 115.171875 31.214844 C 115.015625 31.054688 115.015625 30.796875 115.171875 30.636719 C 115.332031 30.476562 115.589844 30.476562 115.75 30.636719 L 123.878906 38.769531 C 124.039062 38.925781 124.039062 39.183594 123.878906 39.34375 C 123.800781 39.421875 123.695312 39.464844 123.589844 39.464844 " fill-opacity="1" fill-rule="nonzero"/><path fill="#e9c261" d="M 123.007812 50.441406 C 122.917969 50.441406 122.828125 50.410156 122.75 50.347656 L 117.375 45.9375 C 117.203125 45.796875 117.175781 45.539062 117.320312 45.367188 C 117.460938 45.191406 117.71875 45.167969 117.890625 45.308594 L 123.269531 49.71875 C 123.441406 49.859375 123.46875 50.117188 123.324219 50.289062 C 123.242188 50.390625 123.125 50.441406 123.007812 50.441406 " fill-opacity="1" fill-rule="nonzero"/><path fill="#e9c261" d="M 118.125 57.015625 C 118.046875 57.015625 117.964844 56.996094 117.898438 56.949219 L 112.117188 53.085938 C 111.929688 52.960938 111.878906 52.707031 112.007812 52.519531 C 112.132812 52.332031 112.386719 52.285156 112.570312 52.40625 L 118.347656 56.269531 C 118.539062 56.398438 118.585938 56.648438 118.460938 56.835938 C 118.382812 56.953125 118.253906 57.015625 118.125 57.015625 " fill-opacity="1" fill-rule="nonzero"/><path fill="#e9c261" d="M 113.90625 64.035156 C 113.839844 64.035156 113.773438 64.019531 113.714844 63.988281 L 107.585938 60.710938 C 107.386719 60.605469 107.3125 60.355469 107.417969 60.15625 C 107.523438 59.960938 107.769531 59.886719 107.96875 59.992188 L 114.097656 63.269531 C 114.296875 63.375 114.371094 63.621094 114.265625 63.820312 C 114.191406 63.957031 114.050781 64.035156 113.90625 64.035156 " fill-opacity="1" fill-rule="nonzero"/><path fill="#e9c261" d="M 112.34375 53.152344 C 112.265625 53.152344 112.1875 53.132812 112.117188 53.085938 L 102.566406 46.703125 C 102.378906 46.582031 102.328125 46.328125 102.453125 46.140625 C 102.578125 45.953125 102.832031 45.902344 103.019531 46.027344 L 112.570312 52.40625 C 112.757812 52.535156 112.808594 52.785156 112.683594 52.972656 C 112.605469 53.089844 112.476562 53.152344 112.34375 53.152344 " fill-opacity="1" fill-rule="nonzero"/><path fill="#e9c261" d="M 110.402344 71.433594 C 110.347656 71.433594 110.296875 71.425781 110.246094 71.402344 L 103.824219 68.742188 C 103.617188 68.65625 103.515625 68.417969 103.601562 68.210938 C 103.6875 68.003906 103.925781 67.902344 104.132812 67.988281 L 110.558594 70.652344 C 110.765625 70.738281 110.863281 70.976562 110.777344 71.183594 C 110.710938 71.339844 110.5625 71.433594 110.402344 71.433594 " fill-opacity="1" fill-rule="nonzero"/><path fill="#e9c261" d="M 107.644531 79.148438 C 107.601562 79.148438 107.5625 79.144531 107.523438 79.128906 L 100.871094 77.109375 C 100.65625 77.042969 100.539062 76.816406 100.601562 76.601562 C 100.667969 76.386719 100.894531 76.265625 101.109375 76.332031 L 107.761719 78.351562 C 107.976562 78.417969 108.097656 78.644531 108.03125 78.859375 C 107.980469 79.035156 107.816406 79.148438 107.644531 79.148438 " fill-opacity="1" fill-rule="nonzero"/><path fill="#e9c261" d="M 105.65625 87.089844 C 105.632812 87.089844 105.605469 87.089844 105.578125 87.082031 L 98.765625 85.730469 C 98.542969 85.6875 98.402344 85.472656 98.445312 85.25 C 98.488281 85.03125 98.703125 84.886719 98.925781 84.929688 L 105.738281 86.285156 C 105.957031 86.328125 106.101562 86.542969 106.058594 86.761719 C 106.019531 86.957031 105.847656 87.089844 105.65625 87.089844 " fill-opacity="1" fill-rule="nonzero"/><path fill="#e9c261" d="M 104.46875 95.191406 C 104.453125 95.191406 104.441406 95.191406 104.425781 95.191406 L 97.511719 94.507812 C 97.289062 94.488281 97.125 94.289062 97.148438 94.0625 C 97.167969 93.839844 97.367188 93.679688 97.59375 93.699219 L 104.507812 94.378906 C 104.730469 94.402344 104.894531 94.601562 104.875 94.824219 C 104.851562 95.035156 104.675781 95.191406 104.46875 95.191406 " fill-opacity="1" fill-rule="nonzero"/><path fill="#e9c261" d="M 103.980469 68.773438 C 103.925781 68.773438 103.875 68.761719 103.824219 68.742188 L 93.222656 64.355469 C 93.015625 64.269531 92.917969 64.03125 93.003906 63.824219 C 93.089844 63.613281 93.328125 63.515625 93.535156 63.601562 L 104.132812 67.988281 C 104.34375 68.074219 104.441406 68.316406 104.355469 68.519531 C 104.289062 68.679688 104.140625 68.773438 103.980469 68.773438 " fill-opacity="1" fill-rule="nonzero"/><path fill="#e9c261" d="M 98.84375 85.738281 C 98.816406 85.738281 98.789062 85.734375 98.765625 85.730469 L 87.5 83.488281 C 87.28125 83.445312 87.136719 83.230469 87.183594 83.011719 C 87.226562 82.789062 87.4375 82.644531 87.660156 82.691406 L 98.925781 84.929688 C 99.144531 84.972656 99.289062 85.1875 99.246094 85.410156 C 99.207031 85.605469 99.035156 85.738281 98.84375 85.738281 " fill-opacity="1" fill-rule="nonzero"/><g clip-path="url(#411fb61cb4)"><path fill="#bd8334" d="M 101.339844 102.8125 L 88.222656 102.8125 C 85.210938 102.8125 85.210938 107.480469 88.222656 107.480469 L 101.339844 107.480469 C 104.351562 107.480469 104.351562 102.8125 101.339844 102.8125 Z M 101.339844 102.8125 " fill-opacity="1" fill-rule="nonzero"/></g><path fill="#bd8334" d="M 114.40625 60.007812 L 102.683594 53.492188 C 100.046875 52.027344 97.695312 56.0625 100.324219 57.523438 L 112.050781 64.039062 C 114.683594 65.503906 117.039062 61.46875 114.40625 60.007812 Z M 114.40625 60.007812 " fill-opacity="1" fill-rule="nonzero"/><path fill="#bd8334" d="M 146.257812 29.28125 L 139.875 17.976562 C 138.394531 15.355469 134.359375 17.707031 135.84375 20.332031 L 142.226562 31.636719 C 143.707031 34.257812 147.738281 31.90625 146.257812 29.28125 Z M 146.257812 29.28125 " fill-opacity="1" fill-rule="nonzero"/><path fill="#bd8334" d="M 189.828125 19.023438 L 189.828125 5.875 C 189.828125 2.863281 185.160156 2.863281 185.160156 5.875 L 185.160156 19.023438 C 185.160156 22.035156 189.828125 22.035156 189.828125 19.023438 Z M 189.828125 19.023438 " fill-opacity="1" fill-rule="nonzero"/><path fill="#bd8334" d="M 232.84375 32.011719 L 239.144531 20.332031 C 240.574219 17.683594 236.542969 15.328125 235.113281 17.976562 L 228.8125 29.652344 C 227.382812 32.304688 231.414062 34.660156 232.84375 32.011719 Z M 232.84375 32.011719 " fill-opacity="1" fill-rule="nonzero"/><path fill="#bd8334" d="M 263.101562 64.410156 L 274.660156 57.523438 C 277.242188 55.984375 274.894531 51.945312 272.300781 53.492188 L 260.746094 60.378906 C 258.160156 61.917969 260.507812 65.957031 263.101562 64.410156 Z M 263.101562 64.410156 " fill-opacity="1" fill-rule="nonzero"/><g clip-path="url(#f9fcd02035)"><path fill="#bd8334" d="M 273.410156 107.480469 L 286.765625 107.480469 C 289.777344 107.480469 289.777344 102.8125 286.765625 102.8125 L 273.410156 102.8125 C 270.398438 102.8125 270.398438 107.480469 273.410156 107.480469 Z M 273.410156 107.480469 " fill-opacity="1" fill-rule="nonzero"/></g><path fill="#bd8334" d="M 188.03125 99.1875 L 187.703125 99.1875 C 184.523438 99.1875 181.867188 101.84375 181.867188 105.023438 C 181.867188 108.207031 184.523438 110.859375 187.703125 110.859375 L 188.03125 110.859375 C 191.214844 110.859375 193.867188 108.207031 193.867188 105.023438 C 193.867188 101.84375 191.214844 99.1875 188.03125 99.1875 Z M 188.03125 99.1875 " fill-opacity="1" fill-rule="nonzero"/><path fill="#bd8334" d="M 188.832031 105.371094 L 188.832031 52.921875 C 188.832031 51.417969 186.496094 51.417969 186.496094 52.921875 L 186.496094 105.371094 C 186.496094 106.875 188.832031 106.875 188.832031 105.371094 Z M 188.832031 105.371094 " fill-opacity="1" fill-rule="nonzero"/><path fill="#bd8334" d="M 188.296875 104.433594 L 153.714844 44.597656 L 150.949219 39.808594 C 150.195312 38.507812 148.179688 39.679688 148.933594 40.988281 L 183.515625 100.824219 L 186.28125 105.613281 C 187.035156 106.914062 189.050781 105.738281 188.296875 104.433594 Z M 188.296875 104.433594 " fill-opacity="1" fill-rule="nonzero"/><g clip-path="url(#6d32ee04a1)"><path fill="#e5bb61" d="M 232.488281 215.53125 C 253.71875 220.964844 273.957031 228.9375 293.207031 239.449219 C 324.734375 257.007812 327.492188 260.40625 328.210938 259.3125 C 328.421875 259.105469 326.425781 254.65625 294.527344 236.910156 C 263.230469 220.191406 234.296875 215.53125 232.558594 215.53125 Z M 76.394531 236.933594 C 44.496094 254.679688 42.5 259.128906 42.6875 259.335938 C 43.429688 260.429688 46.164062 257.007812 77.71875 239.472656 C 96.964844 228.953125 117.203125 220.972656 138.433594 215.53125 C 136.625 215.53125 107.601562 220.191406 76.394531 236.933594 Z M 229.105469 215.976562 C 248.300781 220.214844 266.476562 227.152344 283.632812 236.792969 C 311.753906 252.886719 313.605469 256.707031 313.351562 257.007812 C 312.703125 257.984375 310.105469 255.261719 282.261719 239.332031 C 265.308594 229.804688 247.585938 222.035156 229.105469 216.023438 Z M 87.269531 236.839844 C 104.410156 227.191406 122.578125 220.253906 141.773438 216.023438 C 123.28125 222.027344 105.554688 229.789062 88.589844 239.308594 C 60.769531 255.238281 58.148438 257.9375 57.5 256.984375 C 57.246094 256.683594 59.101562 252.863281 87.222656 236.769531 Z M 225.835938 216.511719 C 242.691406 221.296875 258.664062 228.160156 273.753906 237.097656 C 298.605469 252 300.300781 255.308594 300 255.726562 C 299.371094 256.613281 296.9375 254.375 272.316406 239.613281 C 257.394531 230.753906 241.898438 223.054688 225.835938 216.511719 Z M 97.167969 237.097656 C 112.289062 228.152344 128.292969 221.289062 145.179688 216.511719 C 129.078125 223.042969 113.546875 230.738281 98.582031 239.589844 C 73.984375 254.351562 71.550781 256.589844 70.925781 255.703125 C 70.621094 255.308594 72.316406 252 97.167969 237.074219 Z M 222.820312 217.164062 C 237.71875 222.558594 251.859375 229.507812 265.246094 238.003906 C 287.292969 252.234375 288.824219 255.144531 288.429688 255.609375 C 287.851562 256.425781 285.554688 254.5625 263.691406 240.472656 C 241.691406 226.5 222.726562 217.1875 222.707031 217.1875 Z M 105.582031 238.121094 C 118.996094 229.582031 133.167969 222.59375 148.101562 217.164062 C 148.101562 217.164062 129.113281 226.476562 107.113281 240.449219 C 85.25 254.539062 82.957031 256.402344 82.355469 255.585938 C 82.003906 255.121094 83.535156 252.210938 105.535156 237.980469 Z M 219.484375 217.722656 C 232.613281 223.59375 245.09375 230.625 256.921875 238.820312 C 276.421875 252.46875 277.789062 255.121094 277.394531 255.5625 C 276.816406 256.332031 274.660156 254.75 255.300781 241.195312 C 235.875 227.804688 219.527344 217.675781 219.484375 217.722656 Z M 114 238.820312 C 125.828125 230.625 138.308594 223.59375 151.441406 217.722656 C 151.441406 217.722656 135.050781 227.804688 115.597656 241.148438 C 96.261719 254.703125 94.109375 256.285156 93.527344 255.515625 C 93.132812 255.027344 94.5 252.421875 114 238.773438 Z M 216.285156 218.375 C 227.734375 224.703125 238.644531 231.859375 249.019531 239.84375 C 266.152344 253.117188 267.378906 255.449219 266.914062 255.984375 C 266.359375 256.683594 264.320312 255.332031 247.28125 242.011719 C 230.238281 229.015625 216.304688 218.351562 216.285156 218.375 Z M 121.835938 239.84375 C 132.222656 231.859375 143.148438 224.703125 154.617188 218.375 C 154.617188 218.375 140.707031 229.015625 123.574219 242.128906 C 106.535156 255.332031 104.492188 256.683594 103.9375 256.101562 C 103.472656 255.5625 104.703125 253.234375 121.835938 239.960938 Z M 213.152344 219.121094 C 223.117188 225.894531 232.644531 233.238281 241.738281 241.148438 C 256.738281 254.261719 257.828125 256.402344 257.316406 256.9375 C 256.738281 257.589844 254.8125 256.402344 239.859375 243.339844 C 224.882812 230.273438 213.152344 219.121094 213.152344 219.121094 Z M 129.183594 241.148438 C 138.277344 233.238281 147.804688 225.894531 157.769531 219.121094 C 157.769531 219.121094 146.039062 230.273438 131.0625 243.292969 C 116.109375 256.355469 114.160156 257.542969 113.582031 256.890625 C 113.09375 256.355469 114.183594 254.214844 129.183594 241.101562 Z M 232.394531 244.316406 C 219.484375 231.296875 209.886719 219.886719 209.886719 219.886719 C 209.886719 219.886719 221.476562 229.203125 234.414062 242.242188 C 247.324219 255.238281 248.324219 257.195312 247.71875 257.730469 C 247.140625 258.3125 245.402344 257.265625 232.394531 244.269531 Z M 136.507812 242.289062 C 149.332031 229.25 161.039062 219.886719 161.039062 219.886719 C 161.039062 219.886719 151.441406 231.296875 138.527344 244.269531 C 125.636719 257.265625 123.78125 258.242188 123.203125 257.730469 C 122.644531 257.195312 123.574219 255.238281 136.507812 242.242188 Z M 206.6875 220.867188 C 206.6875 220.867188 216.539062 230.648438 227.550781 243.664062 C 238.515625 256.707031 239.304688 258.542969 238.703125 259.082031 C 238.097656 259.570312 236.382812 258.589844 225.347656 245.527344 C 218.742188 237.628906 212.5625 229.40625 206.800781 220.867188 Z M 143.417969 243.617188 C 154.382812 230.578125 164.285156 220.820312 164.285156 220.820312 C 158.523438 229.359375 152.339844 237.582031 145.738281 245.480469 C 134.746094 258.542969 132.960938 259.453125 132.382812 259.035156 C 131.78125 258.5 132.570312 256.707031 143.535156 243.617188 Z M 203.324219 221.679688 C 207.789062 230.25 212.75 238.515625 218.207031 246.480469 C 227.273438 259.617188 228.917969 260.617188 229.542969 260.175781 C 230.214844 259.6875 229.542969 257.847656 220.574219 244.828125 C 211.554688 231.835938 203.347656 221.679688 203.324219 221.679688 Z M 150.351562 244.828125 C 141.308594 257.9375 140.707031 259.6875 141.378906 260.175781 C 141.980469 260.617188 143.695312 259.617188 152.714844 246.480469 C 158.183594 238.523438 163.144531 230.253906 167.597656 221.679688 C 167.597656 221.679688 159.367188 231.835938 150.351562 244.828125 Z M 211.390625 247.667969 C 218.578125 260.945312 220.0625 262.0625 220.664062 261.640625 C 221.382812 261.222656 220.988281 259.523438 213.847656 246.273438 C 206.730469 233.023438 199.9375 222.773438 199.9375 222.773438 C 203.195312 231.3125 206.980469 239.601562 211.300781 247.644531 Z M 157.003906 246.296875 C 149.839844 259.546875 149.46875 261.246094 150.1875 261.664062 C 150.835938 262.0625 152.34375 260.945312 159.460938 247.691406 C 163.804688 239.640625 167.613281 231.34375 170.890625 222.796875 C 170.890625 222.796875 164.121094 233.046875 156.980469 246.296875 Z M 204.667969 248.789062 C 209.929688 262.109375 211.183594 263.433594 211.925781 263.132812 C 212.691406 262.828125 212.621094 261.128906 207.289062 247.738281 C 204.128906 239.621094 200.558594 231.6875 196.578125 223.941406 C 198.800781 232.378906 201.496094 240.660156 204.667969 248.789062 Z M 163.585938 247.738281 C 158.300781 261.128906 158.253906 262.828125 158.949219 263.132812 C 159.667969 263.433594 160.898438 262.199219 166.183594 248.789062 C 169.390625 240.667969 172.105469 232.386719 174.320312 223.941406 C 170.339844 231.6875 166.761719 239.621094 163.585938 247.738281 Z M 198.363281 250.71875 C 194.863281 236.746094 193.167969 225.105469 193.167969 225.105469 C 196.355469 233.21875 199.019531 241.5 201.167969 249.953125 C 204.644531 263.925781 204.226562 265.71875 203.484375 265.878906 C 202.652344 266.042969 201.816406 264.601562 198.339844 250.652344 Z M 169.941406 250.023438 C 172.054688 241.574219 174.691406 233.289062 177.84375 225.175781 C 177.84375 225.175781 176.152344 236.816406 172.628906 250.789062 C 169.175781 264.761719 168.316406 266.183594 167.503906 266.019531 C 166.765625 265.855469 166.371094 264.085938 169.824219 250.089844 Z M 191.847656 252.234375 C 193.308594 266.207031 193.539062 267.789062 194.445312 267.789062 C 195.117188 267.789062 196.183594 266.113281 194.699219 251.90625 C 193.648438 243.351562 191.949219 234.929688 189.597656 226.640625 C 189.597656 226.640625 190.179688 238.285156 191.917969 252.257812 Z M 176.40625 251.90625 C 174.925781 266.113281 175.992188 267.8125 176.640625 267.789062 C 177.566406 267.789062 177.800781 266.253906 179.257812 252.234375 C 180.929688 238.261719 181.578125 226.617188 181.578125 226.617188 C 179.214844 234.90625 177.515625 243.328125 176.476562 251.882812 Z M 176.40625 251.90625 " fill-opacity="1" fill-rule="evenodd"/></g><g fill="#bd8334" fill-opacity="1"><g transform="translate(74.53734, 167.440605)"><g><path d="M 2.628906 -42.058594 C 3.679688 -40.007812 4.152344 -38.851562 4.785156 -36.433594 L 15.089844 0 L 21.292969 0 C 20.925781 -1.15625 20.925781 -1.734375 21.1875 -2.839844 L 30.808594 -36.75 C 31.386719 -38.695312 31.542969 -39.746094 32.699219 -42.058594 L 31.125 -42.058594 C 30.964844 -39.796875 30.492188 -38.695312 29.964844 -36.695312 L 20.082031 -1.789062 L 10.304688 -36.433594 C 9.671875 -38.695312 9.304688 -39.691406 9.199219 -42.058594 Z M 2.628906 -42.058594 "/></g></g></g><g fill="#bd8334" fill-opacity="1"><g transform="translate(109.860033, 167.440605)"><g><path d="M 26.65625 1.050781 C 40.113281 1.050781 50.207031 -8.097656 50.207031 -21.027344 C 50.207031 -33.910156 40.113281 -43.109375 26.65625 -43.109375 C 13.195312 -43.109375 3.15625 -33.910156 3.15625 -21.027344 C 3.15625 -8.097656 13.195312 1.050781 26.65625 1.050781 Z M 26.65625 0.210938 C 15.507812 0.210938 8.832031 -9.9375 8.832031 -21.027344 C 8.832031 -32.070312 15.507812 -42.269531 26.65625 -42.269531 C 37.800781 -42.269531 44.53125 -32.070312 44.53125 -21.027344 C 44.53125 -9.9375 37.800781 0.210938 26.65625 0.210938 Z M 26.65625 0.210938 "/></g></g></g><g fill="#bd8334" fill-opacity="1"><g transform="translate(163.212025, 167.440605)"><g><path d="M 3.785156 -42.058594 C 4.101562 -37.640625 4.207031 -35.539062 4.207031 -31.703125 L 4.207031 -10.355469 C 4.207031 -6.519531 4.101562 -4.417969 3.679688 0 L 26.917969 0 L 28.441406 -2.839844 C 22.554688 -1.105469 18.980469 -0.839844 13.773438 -0.839844 L 9.359375 -0.839844 L 9.359375 -31.703125 C 9.359375 -35.539062 9.464844 -37.640625 9.777344 -42.058594 Z M 3.785156 -42.058594 "/></g></g></g><g fill="#bd8334" fill-opacity="1"><g transform="translate(193.751441, 167.440605)"><g><path d="M 30.492188 -5.625 L 20.242188 -42.058594 L 14.035156 -42.058594 C 14.40625 -40.902344 14.40625 -40.324219 14.140625 -39.21875 L 4.519531 -5.308594 C 3.941406 -3.363281 3.785156 -2.3125 2.628906 0 L 4.152344 0 C 4.363281 -2.261719 4.785156 -3.363281 5.363281 -5.363281 L 8.203125 -15.296875 L 22.289062 -15.296875 L 25.023438 -5.625 C 25.65625 -3.363281 26.023438 -2.367188 26.128906 0 L 32.699219 0 C 31.648438 -2.050781 31.175781 -3.207031 30.492188 -5.625 Z M 8.410156 -16.140625 L 15.246094 -40.269531 L 22.082031 -16.140625 Z M 8.410156 -16.140625 "/></g></g></g><g fill="#bd8334" fill-opacity="1"><g transform="translate(229.074135, 167.440605)"><g><path d="M 28.019531 -9.988281 C 25.496094 -16.296875 21.660156 -18.714844 17.085938 -19.558594 C 24.816406 -20.136719 30.914062 -22.816406 30.914062 -30.753906 C 30.914062 -39.902344 22.765625 -42.058594 13.40625 -42.058594 L 3.679688 -42.058594 C 3.996094 -37.640625 4.101562 -35.539062 4.101562 -31.703125 L 4.101562 -10.355469 C 4.101562 -6.519531 3.996094 -4.417969 3.679688 0 L 9.671875 0 C 9.359375 -4.417969 9.253906 -6.519531 9.253906 -10.355469 L 9.253906 -19.453125 L 11.144531 -19.453125 C 16.558594 -19.453125 19.820312 -17.875 22.765625 -9.621094 C 25.339844 -2.261719 29.285156 0 37.957031 0 L 37.957031 -0.789062 C 33.070312 -0.789062 30.703125 -2.945312 28.019531 -9.988281 Z M 9.253906 -20.292969 L 9.253906 -41.21875 L 13.355469 -41.21875 C 19.503906 -41.21875 25.550781 -39.113281 25.550781 -30.753906 C 25.550781 -22.394531 19.503906 -20.292969 13.355469 -20.292969 Z M 9.253906 -20.292969 "/></g></g></g><g fill="#bd8334" fill-opacity="1"><g transform="translate(268.969862, 167.440605)"><g><path d="M 3.679688 -42.058594 C 4.101562 -37.640625 4.152344 -35.539062 4.152344 -31.703125 L 4.152344 -10.355469 C 4.152344 -6.519531 4.101562 -4.417969 3.679688 0 L 28.390625 0 L 29.914062 -2.839844 C 24.027344 -1.105469 20.449219 -0.839844 15.246094 -0.839844 L 9.359375 -0.839844 L 9.359375 -21.871094 L 12.722656 -21.871094 C 15.507812 -21.871094 18.347656 -21.871094 23.238281 -21.34375 L 23.238281 -23.238281 C 18.347656 -22.710938 15.507812 -22.710938 12.722656 -22.710938 L 9.359375 -22.710938 L 9.359375 -41.21875 L 14.140625 -41.21875 C 16.507812 -41.21875 21.660156 -40.902344 26.128906 -39.113281 L 28.496094 -42.058594 Z M 3.679688 -42.058594 "/></g></g></g><g fill="#bd8334" fill-opacity="1"><g transform="translate(110.669476, 198.934052)"><g><path d="M 9.789062 -10.34375 C 9.789062 -11.375 9.789062 -12 9.890625 -13.5 L 8.707031 -13.5 C 8.808594 -12 8.828125 -11.375 8.828125 -10.34375 L 8.828125 -6.851562 L 2.246094 -6.851562 L 2.246094 -10.34375 C 2.246094 -11.375 2.261719 -12 2.347656 -13.5 L 1.179688 -13.5 C 1.28125 -12 1.28125 -11.375 1.28125 -10.34375 L 1.28125 -3.171875 C 1.28125 -2.125 1.28125 -1.503906 1.179688 0 L 2.347656 0 C 2.261719 -1.503906 2.246094 -2.125 2.246094 -3.171875 L 2.246094 -6.648438 L 8.828125 -6.648438 L 8.828125 -3.171875 C 8.828125 -2.125 8.808594 -1.503906 8.707031 0 L 9.890625 0 C 9.789062 -1.503906 9.789062 -2.125 9.789062 -3.171875 Z M 9.789062 -10.34375 "/></g></g></g><g fill="#bd8334" fill-opacity="1"><g transform="translate(126.129596, 198.934052)"><g><path d="M 8.304688 0.335938 C 12.472656 0.335938 15.59375 -2.734375 15.59375 -6.75 C 15.59375 -10.75 12.472656 -13.839844 8.304688 -13.839844 C 4.117188 -13.839844 1.011719 -10.75 1.011719 -6.75 C 1.011719 -2.734375 4.117188 0.335938 8.304688 0.335938 Z M 8.304688 0.136719 C 4.539062 0.136719 2.09375 -3.191406 2.09375 -6.75 C 2.09375 -10.292969 4.539062 -13.636719 8.304688 -13.636719 C 12.050781 -13.636719 14.515625 -10.292969 14.515625 -6.75 C 14.515625 -3.191406 12.050781 0.136719 8.304688 0.136719 Z M 8.304688 0.136719 "/></g></g></g><g fill="#bd8334" fill-opacity="1"><g transform="translate(147.125221, 198.934052)"><g><path d="M 7.964844 -3.257812 C 7.222656 -5.230469 6.074219 -6.007812 4.742188 -6.277344 C 7.121094 -6.464844 9.011719 -7.339844 9.011719 -9.871094 C 9.011719 -12.777344 6.546875 -13.5 3.679688 -13.5 L 1.179688 -13.5 C 1.28125 -12 1.28125 -11.375 1.28125 -10.34375 L 1.28125 -3.171875 C 1.28125 -2.125 1.28125 -1.503906 1.179688 0 L 2.347656 0 C 2.261719 -1.503906 2.246094 -2.125 2.246094 -3.171875 L 2.246094 -6.246094 L 2.988281 -6.246094 C 4.808594 -6.246094 6.074219 -5.722656 7.019531 -3.121094 C 7.832031 -0.894531 8.726562 0 11.238281 0 L 11.238281 -0.203125 C 9.621094 -0.203125 8.859375 -0.859375 7.964844 -3.257812 Z M 2.246094 -6.464844 L 2.246094 -13.296875 L 3.679688 -13.296875 C 5.824219 -13.296875 7.984375 -12.625 7.984375 -9.871094 C 7.984375 -7.140625 5.824219 -6.464844 3.679688 -6.464844 Z M 2.246094 -6.464844 "/></g></g></g><g fill="#bd8334" fill-opacity="1"><g transform="translate(163.395407, 198.934052)"><g><path d="M 1.214844 -13.5 C 1.316406 -12 1.316406 -11.375 1.316406 -10.34375 L 1.316406 -3.171875 C 1.316406 -2.125 1.300781 -1.503906 1.179688 0 L 7.949219 0 L 8.355469 -0.691406 C 6.683594 -0.285156 5.433594 -0.21875 3.8125 -0.21875 L 2.277344 -0.21875 L 2.277344 -10.34375 C 2.277344 -11.375 2.296875 -12 2.378906 -13.5 Z M 1.214844 -13.5 "/></g></g></g><g fill="#bd8334" fill-opacity="1"><g transform="translate(176.813458, 198.934052)"><g><path d="M 8.304688 0.335938 C 12.472656 0.335938 15.59375 -2.734375 15.59375 -6.75 C 15.59375 -10.75 12.472656 -13.839844 8.304688 -13.839844 C 4.117188 -13.839844 1.011719 -10.75 1.011719 -6.75 C 1.011719 -2.734375 4.117188 0.335938 8.304688 0.335938 Z M 8.304688 0.136719 C 4.539062 0.136719 2.09375 -3.191406 2.09375 -6.75 C 2.09375 -10.292969 4.539062 -13.636719 8.304688 -13.636719 C 12.050781 -13.636719 14.515625 -10.292969 14.515625 -6.75 C 14.515625 -3.191406 12.050781 0.136719 8.304688 0.136719 Z M 8.304688 0.136719 "/></g></g></g><g fill="#bd8334" fill-opacity="1"><g transform="translate(197.809085, 198.934052)"><g><path d="M 14.328125 -6.632812 L 14.328125 -6.835938 L 7.5625 -6.835938 L 8.167969 -6.144531 C 9.636719 -6.566406 11.476562 -6.632812 12.117188 -6.632812 L 12.640625 -6.632812 C 12.472656 -2.515625 10.632812 -0.0507812 7.476562 -0.0507812 C 3.984375 -0.0507812 2.09375 -3.257812 2.09375 -6.96875 C 2.09375 -10.632812 4.234375 -13.636719 7.441406 -13.636719 C 9.738281 -13.636719 11.003906 -11.964844 11.59375 -10.074219 L 12.707031 -10.363281 C 11.59375 -12.574219 9.921875 -13.839844 7.441406 -13.839844 C 3.796875 -13.839844 1.011719 -10.902344 1.011719 -6.917969 C 1.011719 -2.917969 3.425781 0.335938 7.273438 0.335938 C 10.242188 0.335938 12.050781 -1.570312 12.640625 -4.808594 L 12.640625 -3.710938 C 12.640625 -2.617188 12.625 -1.652344 12.453125 0 L 13.0625 0 C 12.894531 -1.652344 12.894531 -2.617188 12.894531 -3.710938 L 12.894531 -6.632812 Z M 14.328125 -6.632812 "/></g></g></g><g fill="#bd8334" fill-opacity="1"><g transform="translate(216.863913, 198.934052)"><g><path d="M 1.179688 -13.5 C 1.300781 -12 1.316406 -11.375 1.316406 -10.34375 L 1.316406 -3.171875 C 1.316406 -2.125 1.300781 -1.503906 1.179688 0 L 8.539062 0 L 8.925781 -0.691406 C 7.273438 -0.285156 6.023438 -0.21875 4.40625 -0.21875 L 2.277344 -0.21875 L 2.277344 -7.089844 L 3.476562 -7.089844 C 4.371094 -7.089844 5.28125 -7.089844 6.851562 -6.917969 L 6.851562 -7.460938 C 5.28125 -7.289062 4.371094 -7.289062 3.476562 -7.289062 L 2.277344 -7.289062 L 2.277344 -13.296875 L 3.863281 -13.296875 C 4.523438 -13.296875 6.34375 -13.214844 7.8125 -12.808594 L 8.421875 -13.5 Z M 1.179688 -13.5 "/></g></g></g><g fill="#bd8334" fill-opacity="1"><g transform="translate(230.686998, 198.934052)"><g><path d="M 7.964844 -3.257812 C 7.222656 -5.230469 6.074219 -6.007812 4.742188 -6.277344 C 7.121094 -6.464844 9.011719 -7.339844 9.011719 -9.871094 C 9.011719 -12.777344 6.546875 -13.5 3.679688 -13.5 L 1.179688 -13.5 C 1.28125 -12 1.28125 -11.375 1.28125 -10.34375 L 1.28125 -3.171875 C 1.28125 -2.125 1.28125 -1.503906 1.179688 0 L 2.347656 0 C 2.261719 -1.503906 2.246094 -2.125 2.246094 -3.171875 L 2.246094 -6.246094 L 2.988281 -6.246094 C 4.808594 -6.246094 6.074219 -5.722656 7.019531 -3.121094 C 7.832031 -0.894531 8.726562 0 11.238281 0 L 11.238281 -0.203125 C 9.621094 -0.203125 8.859375 -0.859375 7.964844 -3.257812 Z M 2.246094 -6.464844 L 2.246094 -13.296875 L 3.679688 -13.296875 C 5.824219 -13.296875 7.984375 -12.625 7.984375 -9.871094 C 7.984375 -7.140625 5.824219 -6.464844 3.679688 -6.464844 Z M 2.246094 -6.464844 "/></g></g></g><g fill="#bd8334" fill-opacity="1"><g transform="translate(246.95718, 198.934052)"><g><path d="M 1.179688 -13.5 C 1.28125 -12 1.28125 -11.375 1.28125 -10.34375 L 1.28125 -3.171875 C 1.28125 -2.125 1.28125 -1.503906 1.179688 0 L 2.347656 0 C 2.261719 -1.503906 2.246094 -2.125 2.246094 -3.171875 L 2.246094 -10.34375 C 2.246094 -11.375 2.261719 -12 2.347656 -13.5 Z M 1.179688 -13.5 "/></g></g></g><g fill="#bd8334" fill-opacity="1"><g transform="translate(254.87346, 198.934052)"><g><path d="M 1.179688 -13.5 C 1.300781 -12 1.316406 -11.375 1.316406 -10.34375 L 1.316406 -3.171875 C 1.316406 -2.125 1.300781 -1.503906 1.179688 0 L 8.539062 0 L 8.925781 -0.691406 C 7.273438 -0.285156 6.023438 -0.21875 4.40625 -0.21875 L 2.277344 -0.21875 L 2.277344 -7.089844 L 3.476562 -7.089844 C 4.371094 -7.089844 5.28125 -7.089844 6.851562 -6.917969 L 6.851562 -7.460938 C 5.28125 -7.289062 4.371094 -7.289062 3.476562 -7.289062 L 2.277344 -7.289062 L 2.277344 -13.296875 L 3.863281 -13.296875 C 4.523438 -13.296875 6.34375 -13.214844 7.8125 -12.808594 L 8.421875 -13.5 Z M 1.179688 -13.5 "/></g></g></g></svg>