<svg xmlns="http://www.w3.org/2000/svg" xmlns:xlink="http://www.w3.org/1999/xlink" width="500" zoomAndPan="magnify" viewBox="0 0 375 113.249998" height="151" preserveAspectRatio="xMidYMid meet" version="1.0"><defs><g/></defs><g fill="#bd8334" fill-opacity="1"><g transform="translate(44.848176, 57.598155)"><g><path d="M 3.320312 -53.113281 C 4.648438 -50.523438 5.246094 -49.0625 6.042969 -46.011719 L 19.054688 0 L 26.890625 0 C 26.425781 -1.460938 26.425781 -2.191406 26.757812 -3.585938 L 38.90625 -46.410156 C 39.636719 -48.863281 39.835938 -50.191406 41.296875 -53.113281 L 39.304688 -53.113281 C 39.105469 -50.257812 38.507812 -48.863281 37.84375 -46.34375 L 25.363281 -2.257812 L 13.011719 -46.011719 C 12.214844 -48.863281 11.75 -50.125 11.617188 -53.113281 Z M 3.320312 -53.113281 "/></g></g></g><g fill="#bd8334" fill-opacity="1"><g transform="translate(89.455961, 57.598155)"><g><path d="M 33.660156 1.328125 C 50.65625 1.328125 63.40625 -10.222656 63.40625 -26.558594 C 63.40625 -42.824219 50.65625 -54.441406 33.660156 -54.441406 C 16.664062 -54.441406 3.984375 -42.824219 3.984375 -26.558594 C 3.984375 -10.222656 16.664062 1.328125 33.660156 1.328125 Z M 33.660156 0.265625 C 19.585938 0.265625 11.152344 -12.546875 11.152344 -26.558594 C 11.152344 -40.5 19.585938 -53.378906 33.660156 -53.378906 C 47.738281 -53.378906 56.234375 -40.5 56.234375 -26.558594 C 56.234375 -12.546875 47.738281 0.265625 33.660156 0.265625 Z M 33.660156 0.265625 "/></g></g></g><g fill="#bd8334" fill-opacity="1"><g transform="translate(156.832312, 57.598155)"><g><path d="M 4.78125 -53.113281 C 5.179688 -47.539062 5.3125 -44.882812 5.3125 -40.035156 L 5.3125 -13.078125 C 5.3125 -8.234375 5.179688 -5.578125 4.648438 0 L 33.992188 0 L 35.917969 -3.585938 C 28.484375 -1.394531 23.96875 -1.0625 17.394531 -1.0625 L 11.816406 -1.0625 L 11.816406 -40.035156 C 11.816406 -44.882812 11.949219 -47.539062 12.347656 -53.113281 Z M 4.78125 -53.113281 "/></g></g></g><g fill="#bd8334" fill-opacity="1"><g transform="translate(195.399466, 57.598155)"><g><path d="M 38.507812 -7.105469 L 25.5625 -53.113281 L 17.726562 -53.113281 C 18.191406 -51.652344 18.191406 -50.921875 17.859375 -49.527344 L 5.710938 -6.707031 C 4.980469 -4.25 4.78125 -2.921875 3.320312 0 L 5.246094 0 C 5.511719 -2.855469 6.042969 -4.25 6.773438 -6.773438 L 10.355469 -19.320312 L 28.152344 -19.320312 L 31.601562 -7.105469 C 32.398438 -4.25 32.863281 -2.988281 32.996094 0 L 41.296875 0 C 39.96875 -2.589844 39.371094 -4.050781 38.507812 -7.105469 Z M 10.621094 -20.382812 L 19.253906 -50.855469 L 27.886719 -20.382812 Z M 10.621094 -20.382812 "/></g></g></g><g fill="#bd8334" fill-opacity="1"><g transform="translate(240.007251, 57.598155)"><g><path d="M 35.386719 -12.613281 C 32.199219 -20.582031 27.355469 -23.636719 21.578125 -24.699219 C 31.335938 -25.429688 39.039062 -28.8125 39.039062 -38.839844 C 39.039062 -50.390625 28.75 -53.113281 16.929688 -53.113281 L 4.648438 -53.113281 C 5.046875 -47.539062 5.179688 -44.882812 5.179688 -40.035156 L 5.179688 -13.078125 C 5.179688 -8.234375 5.046875 -5.578125 4.648438 0 L 12.214844 0 C 11.816406 -5.578125 11.683594 -8.234375 11.683594 -13.078125 L 11.683594 -24.566406 L 14.074219 -24.566406 C 20.914062 -24.566406 25.03125 -22.574219 28.75 -12.148438 C 32 -2.855469 36.980469 0 47.933594 0 L 47.933594 -0.996094 C 41.761719 -0.996094 38.773438 -3.71875 35.386719 -12.613281 Z M 11.683594 -25.628906 L 11.683594 -52.050781 L 16.863281 -52.050781 C 24.632812 -52.050781 32.265625 -49.394531 32.265625 -38.839844 C 32.265625 -28.285156 24.632812 -25.628906 16.863281 -25.628906 Z M 11.683594 -25.628906 "/></g></g></g><g fill="#bd8334" fill-opacity="1"><g transform="translate(290.39016, 57.598155)"><g><path d="M 4.648438 -53.113281 C 5.179688 -47.539062 5.246094 -44.882812 5.246094 -40.035156 L 5.246094 -13.078125 C 5.246094 -8.234375 5.179688 -5.578125 4.648438 0 L 35.851562 0 L 37.777344 -3.585938 C 30.339844 -1.394531 25.828125 -1.0625 19.253906 -1.0625 L 11.816406 -1.0625 L 11.816406 -27.621094 L 16.066406 -27.621094 C 19.585938 -27.621094 23.171875 -27.621094 29.34375 -26.957031 L 29.34375 -29.34375 C 23.171875 -28.683594 19.585938 -28.683594 16.066406 -28.683594 L 11.816406 -28.683594 L 11.816406 -52.050781 L 17.859375 -52.050781 C 20.847656 -52.050781 27.355469 -51.652344 32.996094 -49.394531 L 35.984375 -53.113281 Z M 4.648438 -53.113281 "/></g></g></g><g fill="#bd8334" fill-opacity="1"><g transform="translate(53.140043, 103.225757)"><g><path d="M 18.046875 -17.003906 C 18.046875 -19.0625 18.074219 -20.1875 18.273438 -22.558594 L 15.058594 -22.558594 C 15.226562 -20.1875 15.28125 -19.0625 15.28125 -17.003906 L 15.28125 -11.503906 L 4.960938 -11.503906 L 4.960938 -17.003906 C 4.960938 -19.0625 5.019531 -20.1875 5.1875 -22.558594 L 1.972656 -22.558594 C 2.144531 -20.1875 2.199219 -19.0625 2.199219 -17.003906 L 2.199219 -5.554688 C 2.199219 -3.496094 2.144531 -2.367188 1.972656 0 L 5.1875 0 C 5.019531 -2.367188 4.960938 -3.496094 4.960938 -5.554688 L 4.960938 -11.054688 L 15.28125 -11.054688 L 15.28125 -5.554688 C 15.28125 -3.496094 15.226562 -2.367188 15.058594 0 L 18.273438 0 C 18.074219 -2.367188 18.046875 -3.496094 18.046875 -5.554688 Z M 18.046875 -17.003906 "/></g></g></g><g fill="#bd8334" fill-opacity="1"><g transform="translate(80.718077, 103.225757)"><g><path d="M 14.296875 0.5625 C 21.515625 0.5625 26.929688 -4.34375 26.929688 -11.277344 C 26.929688 -18.1875 21.515625 -23.121094 14.296875 -23.121094 C 7.078125 -23.121094 1.691406 -18.1875 1.691406 -11.277344 C 1.691406 -4.34375 7.078125 0.5625 14.296875 0.5625 Z M 14.296875 0.113281 C 8.316406 0.113281 4.738281 -5.328125 4.738281 -11.277344 C 4.738281 -17.199219 8.316406 -22.671875 14.296875 -22.671875 C 20.273438 -22.671875 23.882812 -17.199219 23.882812 -11.277344 C 23.882812 -5.328125 20.273438 0.113281 14.296875 0.113281 Z M 14.296875 0.113281 "/></g></g></g><g fill="#bd8334" fill-opacity="1"><g transform="translate(116.67008, 103.225757)"><g><path d="M 15.027344 -5.359375 C 13.675781 -8.742188 11.617188 -10.039062 9.164062 -10.488281 C 13.308594 -10.800781 16.582031 -12.238281 16.582031 -16.496094 C 16.582031 -21.402344 12.210938 -22.558594 7.191406 -22.558594 L 1.972656 -22.558594 C 2.144531 -20.1875 2.199219 -19.0625 2.199219 -17.003906 L 2.199219 -5.554688 C 2.199219 -3.496094 2.144531 -2.367188 1.972656 0 L 5.1875 0 C 5.019531 -2.367188 4.960938 -3.496094 4.960938 -5.554688 L 4.960938 -10.433594 L 5.976562 -10.433594 C 8.882812 -10.433594 10.628906 -9.585938 12.210938 -5.160156 C 13.589844 -1.210938 15.707031 0 20.359375 0 L 20.359375 -0.421875 C 17.734375 -0.421875 16.46875 -1.578125 15.027344 -5.359375 Z M 4.960938 -10.882812 L 4.960938 -22.105469 L 7.164062 -22.105469 C 10.460938 -22.105469 13.703125 -20.980469 13.703125 -16.496094 C 13.703125 -12.011719 10.460938 -10.882812 7.164062 -10.882812 Z M 4.960938 -10.882812 "/></g></g></g><g fill="#bd8334" fill-opacity="1"><g transform="translate(145.404115, 103.225757)"><g><path d="M 2.03125 -22.558594 C 2.199219 -20.1875 2.253906 -19.0625 2.253906 -17.003906 L 2.253906 -5.554688 C 2.253906 -3.496094 2.199219 -2.367188 1.972656 0 L 14.4375 0 L 15.253906 -1.523438 C 12.097656 -0.59375 10.179688 -0.449219 7.386719 -0.449219 L 5.019531 -0.449219 L 5.019531 -17.003906 C 5.019531 -19.0625 5.074219 -20.1875 5.246094 -22.558594 Z M 2.03125 -22.558594 "/></g></g></g><g fill="#bd8334" fill-opacity="1"><g transform="translate(169.119431, 103.225757)"><g><path d="M 14.296875 0.5625 C 21.515625 0.5625 26.929688 -4.34375 26.929688 -11.277344 C 26.929688 -18.1875 21.515625 -23.121094 14.296875 -23.121094 C 7.078125 -23.121094 1.691406 -18.1875 1.691406 -11.277344 C 1.691406 -4.34375 7.078125 0.5625 14.296875 0.5625 Z M 14.296875 0.113281 C 8.316406 0.113281 4.738281 -5.328125 4.738281 -11.277344 C 4.738281 -17.199219 8.316406 -22.671875 14.296875 -22.671875 C 20.273438 -22.671875 23.882812 -17.199219 23.882812 -11.277344 C 23.882812 -5.328125 20.273438 0.113281 14.296875 0.113281 Z M 14.296875 0.113281 "/></g></g></g><g fill="#bd8334" fill-opacity="1"><g transform="translate(205.071439, 103.225757)"><g><path d="M 24.53125 -10.96875 L 24.53125 -11.421875 L 12.859375 -11.421875 L 14.097656 -9.839844 C 16.523438 -10.800781 19.289062 -10.96875 20.554688 -10.96875 L 21.570312 -10.96875 C 21.289062 -4.398438 18.328125 -0.394531 13.28125 -0.394531 C 7.699219 -0.394531 4.738281 -5.582031 4.738281 -11.730469 C 4.738281 -17.765625 7.867188 -22.671875 12.859375 -22.671875 C 16.46875 -22.671875 18.414062 -19.792969 19.257812 -16.382812 L 22.105469 -17.144531 C 20.1875 -20.839844 17.257812 -23.121094 12.859375 -23.121094 C 6.597656 -23.121094 1.691406 -18.414062 1.691406 -11.5625 C 1.691406 -4.710938 5.949219 0.5625 12.546875 0.5625 C 17.625 0.5625 20.527344 -2.566406 21.570312 -7.699219 L 21.570312 -6.230469 C 21.570312 -4.285156 21.542969 -2.59375 21.261719 0 L 22.5 0 C 22.21875 -2.59375 22.191406 -4.285156 22.191406 -6.230469 L 22.191406 -10.96875 Z M 24.53125 -10.96875 "/></g></g></g><g fill="#bd8334" fill-opacity="1"><g transform="translate(237.499058, 103.225757)"><g><path d="M 1.972656 -22.558594 C 2.199219 -20.1875 2.226562 -19.0625 2.226562 -17.003906 L 2.226562 -5.554688 C 2.226562 -3.496094 2.199219 -2.367188 1.972656 0 L 15.226562 0 L 16.042969 -1.523438 C 12.886719 -0.59375 10.96875 -0.449219 8.175781 -0.449219 L 5.019531 -0.449219 L 5.019531 -11.730469 L 6.824219 -11.730469 C 8.316406 -11.730469 9.839844 -11.730469 12.464844 -11.449219 L 12.464844 -12.464844 C 9.839844 -12.179688 8.316406 -12.179688 6.824219 -12.179688 L 5.019531 -12.179688 L 5.019531 -22.105469 L 7.585938 -22.105469 C 8.855469 -22.105469 11.617188 -21.9375 14.015625 -20.980469 L 15.28125 -22.558594 Z M 1.972656 -22.558594 "/></g></g></g><g fill="#bd8334" fill-opacity="1"><g transform="translate(261.721875, 103.225757)"><g><path d="M 15.027344 -5.359375 C 13.675781 -8.742188 11.617188 -10.039062 9.164062 -10.488281 C 13.308594 -10.800781 16.582031 -12.238281 16.582031 -16.496094 C 16.582031 -21.402344 12.210938 -22.558594 7.191406 -22.558594 L 1.972656 -22.558594 C 2.144531 -20.1875 2.199219 -19.0625 2.199219 -17.003906 L 2.199219 -5.554688 C 2.199219 -3.496094 2.144531 -2.367188 1.972656 0 L 5.1875 0 C 5.019531 -2.367188 4.960938 -3.496094 4.960938 -5.554688 L 4.960938 -10.433594 L 5.976562 -10.433594 C 8.882812 -10.433594 10.628906 -9.585938 12.210938 -5.160156 C 13.589844 -1.210938 15.707031 0 20.359375 0 L 20.359375 -0.421875 C 17.734375 -0.421875 16.46875 -1.578125 15.027344 -5.359375 Z M 4.960938 -10.882812 L 4.960938 -22.105469 L 7.164062 -22.105469 C 10.460938 -22.105469 13.703125 -20.980469 13.703125 -16.496094 C 13.703125 -12.011719 10.460938 -10.882812 7.164062 -10.882812 Z M 4.960938 -10.882812 "/></g></g></g><g fill="#bd8334" fill-opacity="1"><g transform="translate(290.455919, 103.225757)"><g><path d="M 1.972656 -22.558594 C 2.144531 -20.1875 2.199219 -19.0625 2.199219 -17.003906 L 2.199219 -5.554688 C 2.199219 -3.496094 2.144531 -2.367188 1.972656 0 L 5.1875 0 C 5.019531 -2.367188 4.960938 -3.496094 4.960938 -5.554688 L 4.960938 -17.003906 C 4.960938 -19.0625 5.019531 -20.1875 5.1875 -22.558594 Z M 1.972656 -22.558594 "/></g></g></g><g fill="#bd8334" fill-opacity="1"><g transform="translate(304.951409, 103.225757)"><g><path d="M 1.972656 -22.558594 C 2.199219 -20.1875 2.226562 -19.0625 2.226562 -17.003906 L 2.226562 -5.554688 C 2.226562 -3.496094 2.199219 -2.367188 1.972656 0 L 15.226562 0 L 16.042969 -1.523438 C 12.886719 -0.59375 10.96875 -0.449219 8.175781 -0.449219 L 5.019531 -0.449219 L 5.019531 -11.730469 L 6.824219 -11.730469 C 8.316406 -11.730469 9.839844 -11.730469 12.464844 -11.449219 L 12.464844 -12.464844 C 9.839844 -12.179688 8.316406 -12.179688 6.824219 -12.179688 L 5.019531 -12.179688 L 5.019531 -22.105469 L 7.585938 -22.105469 C 8.855469 -22.105469 11.617188 -21.9375 14.015625 -20.980469 L 15.28125 -22.558594 Z M 1.972656 -22.558594 "/></g></g></g></svg>